<svg width="246" height="225" viewBox="0 0 246 225" fill="none" xmlns="http://www.w3.org/2000/svg">
<path d="M53.7996 221.608C57.5173 221.608 61.2351 221.608 64.9528 221.608C65.3496 221.608 65.3496 220.983 64.9528 220.983C61.2351 220.983 57.5173 220.983 53.7996 220.983C53.4027 220.983 53.4027 221.608 53.7996 221.608Z" fill="#386190"/>
<path d="M102.821 221.233C105.578 221.233 108.335 221.233 111.092 221.233C111.489 221.233 111.489 220.607 111.092 220.607C108.335 220.607 105.578 220.607 102.821 220.607C102.403 220.607 102.403 221.233 102.821 221.233Z" fill="#386190"/>
<path d="M115.101 220.857C116.71 220.857 118.297 220.857 119.905 220.857C120.302 220.857 120.302 220.231 119.905 220.231C118.297 220.231 116.71 220.231 115.101 220.231C114.705 220.231 114.705 220.857 115.101 220.857Z" fill="#386190"/>
<path fill-rule="evenodd" clip-rule="evenodd" d="M95.427 195.842H55.7642C54.3857 195.842 53.2578 194.715 53.2578 193.338V192.044C53.2578 190.667 54.3857 189.541 55.7642 189.541H95.427C96.8055 189.541 97.9334 190.667 97.9334 192.044V193.338C97.9334 194.715 96.8055 195.842 95.427 195.842Z" stroke="#386190" stroke-width="2"/>
<path fill-rule="evenodd" clip-rule="evenodd" d="M99.3118 202.476H59.6489C58.2704 202.476 57.1426 201.35 57.1426 199.973V198.679C57.1426 197.302 58.2704 196.175 59.6489 196.175H99.3118C100.69 196.175 101.818 197.302 101.818 198.679V199.973C101.818 201.35 100.69 202.476 99.3118 202.476Z" stroke="#386190" stroke-width="2"/>
<path fill-rule="evenodd" clip-rule="evenodd" d="M90.1634 208.944H50.5005C49.122 208.944 47.9941 207.817 47.9941 206.44V205.147C47.9941 203.77 49.122 202.643 50.5005 202.643H90.1634C91.5419 202.643 92.6697 203.77 92.6697 205.147V206.44C92.6697 207.817 91.5419 208.944 90.1634 208.944Z" stroke="#386190" stroke-width="2"/>
<path fill-rule="evenodd" clip-rule="evenodd" d="M95.0087 215.036H55.3667C53.9882 215.036 52.8604 213.91 52.8604 212.533V211.239C52.8604 209.862 53.9882 208.735 55.3667 208.735H95.0296C96.4081 208.735 97.5359 209.862 97.5359 211.239V212.533C97.515 213.91 96.3872 215.036 95.0087 215.036Z" stroke="#386190" stroke-width="2"/>
<path fill-rule="evenodd" clip-rule="evenodd" d="M99.3118 221.337H59.6489C58.2704 221.337 57.1426 220.211 57.1426 218.834V217.54C57.1426 216.163 58.2704 215.036 59.6489 215.036H99.3118C100.69 215.036 101.818 216.163 101.818 217.54V218.834C101.818 220.211 100.69 221.337 99.3118 221.337Z" stroke="#386190" stroke-width="2"/>
<path d="M83.835 192.253C83.835 193.108 83.835 193.985 83.835 194.84C83.835 195.132 84.3153 195.153 84.3153 194.84C84.3153 193.985 84.3153 193.108 84.3153 192.253C84.2945 191.94 83.835 191.94 83.835 192.253Z" fill="#386190"/>
<path d="M85.2344 192.712C85.2344 193.505 85.2344 194.277 85.2344 195.07C85.2344 195.362 85.7148 195.383 85.7148 195.07C85.7148 194.277 85.7148 193.505 85.7148 192.712C85.7148 192.42 85.2344 192.42 85.2344 192.712Z" fill="#386190"/>
<path d="M89.9541 191.418C89.9541 192.524 89.9541 193.609 89.9541 194.715C89.9541 195.007 90.4345 195.028 90.4345 194.715C90.4345 193.609 90.4345 192.524 90.4345 191.418C90.4345 191.126 89.9541 191.126 89.9541 191.418Z" fill="#386190"/>
<path d="M90.8936 193.296C90.8936 193.734 90.8936 194.152 90.8936 194.59C90.8936 194.882 91.3739 194.903 91.3739 194.59C91.3739 194.152 91.3739 193.734 91.3739 193.296C91.3739 193.004 90.8936 193.004 90.8936 193.296Z" fill="#386190"/>
<path d="M58.4795 191.335C58.4795 192.545 58.4795 193.755 58.4795 194.986C58.4795 195.278 58.9599 195.299 58.9599 194.986C58.9599 193.776 58.9599 192.566 58.9599 191.335C58.939 191.022 58.4795 191.022 58.4795 191.335Z" fill="#386190"/>
<path d="M56.5371 192.253C56.5371 192.962 56.5371 193.693 56.5371 194.402C56.5371 194.694 57.0175 194.715 57.0175 194.402C57.0175 193.693 57.0175 192.962 57.0175 192.253C57.0175 191.961 56.5371 191.961 56.5371 192.253Z" fill="#386190"/>
<path d="M64.3477 191.481C64.3477 192.462 64.3477 193.442 64.3477 194.402C64.3477 194.694 64.828 194.715 64.828 194.402C64.828 193.421 64.828 192.441 64.828 191.481C64.8072 191.168 64.3477 191.168 64.3477 191.481Z" fill="#386190"/>
<path d="M62.1963 193.192C62.1963 193.839 62.1963 194.485 62.1963 195.132C62.1963 195.424 62.6767 195.445 62.6767 195.132C62.6767 194.485 62.6767 193.839 62.6767 193.192C62.6558 192.879 62.1963 192.879 62.1963 193.192Z" fill="#386190"/>
<path d="M73.1406 191.544C73.1406 192.816 73.1406 194.068 73.1406 195.341C73.1406 195.633 73.621 195.654 73.621 195.341C73.621 194.068 73.621 192.816 73.621 191.544C73.621 191.251 73.1406 191.251 73.1406 191.544Z" fill="#386190"/>
<path d="M74.582 192.983C74.582 193.63 74.582 194.277 74.582 194.924C74.582 195.216 75.0624 195.237 75.0624 194.924C75.0624 194.277 75.0624 193.63 75.0624 192.983C75.0415 192.67 74.582 192.67 74.582 192.983Z" fill="#386190"/>
<path d="M76.7129 191.252C76.7129 192.524 76.7129 193.776 76.7129 195.049C76.7129 195.341 77.1933 195.362 77.1933 195.049C77.1933 193.776 77.1933 192.524 77.1933 191.252C77.1933 190.959 76.7129 190.959 76.7129 191.252Z" fill="#386190"/>
<path d="M62.7607 197.615C62.7607 199.117 62.7607 200.619 62.7607 202.122C62.7607 202.414 63.2411 202.435 63.2411 202.122C63.2411 200.619 63.2411 199.117 63.2411 197.615C63.2411 197.323 62.7607 197.323 62.7607 197.615Z" fill="#386190"/>
<path d="M65.3496 199.117C65.3496 200.181 65.3496 201.266 65.3496 202.33C65.3496 202.622 65.83 202.643 65.83 202.33C65.83 201.266 65.83 200.181 65.83 199.117C65.8091 198.825 65.3496 198.825 65.3496 199.117Z" fill="#386190"/>
<path d="M73.7246 198.262C73.7246 199.326 73.7246 200.411 73.7246 201.475C73.7246 201.767 74.205 201.788 74.205 201.475C74.205 200.411 74.205 199.326 74.205 198.262C74.1841 197.97 73.7246 197.97 73.7246 198.262Z" fill="#386190"/>
<path d="M79.1562 197.114C79.1562 198.846 79.1562 200.598 79.1562 202.33C79.1562 202.622 79.6366 202.643 79.6366 202.33C79.6366 200.598 79.6366 198.846 79.6366 197.114C79.6157 196.822 79.1562 196.822 79.1562 197.114Z" fill="#386190"/>
<path d="M84.0859 199.201C84.0859 199.764 84.0859 200.348 84.0859 200.911C84.0859 201.204 84.5663 201.224 84.5663 200.911C84.5663 200.348 84.5663 199.764 84.5663 199.201C84.5663 198.888 84.0859 198.888 84.0859 199.201Z" fill="#386190"/>
<path d="M52.8809 204.417C52.8809 205.794 52.8809 207.171 52.8809 208.569C52.8809 208.861 53.3612 208.881 53.3612 208.569C53.3612 207.191 53.3612 205.814 53.3612 204.417C53.3612 204.104 52.8809 204.104 52.8809 204.417Z" fill="#386190"/>
<path d="M63.9092 204.563C63.9092 206.002 63.9092 207.421 63.9092 208.861C63.9092 209.153 64.3896 209.174 64.3896 208.861C64.3896 207.421 64.3896 206.002 64.3896 204.563C64.3896 204.25 63.9092 204.25 63.9092 204.563Z" fill="#386190"/>
<path d="M59.335 204.917C59.335 205.877 59.335 206.816 59.335 207.776C59.335 208.068 59.8153 208.089 59.8153 207.776C59.8153 206.816 59.8153 205.877 59.8153 204.917C59.7945 204.604 59.335 204.604 59.335 204.917Z" fill="#386190"/>
<path d="M60.9014 203.978C60.9014 204.771 60.9014 205.543 60.9014 206.336C60.9014 206.628 61.3817 206.649 61.3817 206.336C61.3817 205.543 61.3817 204.771 61.3817 203.978C61.3817 203.686 60.9014 203.686 60.9014 203.978Z" fill="#386190"/>
<path d="M76.0859 204.062C76.0859 205.522 76.0859 206.962 76.0859 208.422C76.0859 208.715 76.5663 208.735 76.5663 208.422C76.5663 206.962 76.5663 205.522 76.5663 204.062C76.5454 203.749 76.0859 203.749 76.0859 204.062Z" fill="#386190"/>
<path d="M72.1387 203.978C72.1387 204.333 72.1387 204.688 72.1387 205.043C72.1387 205.335 72.6191 205.355 72.6191 205.043C72.6191 204.688 72.6191 204.333 72.6191 203.978C72.6191 203.686 72.1387 203.686 72.1387 203.978Z" fill="#386190"/>
<path d="M85.4424 202.706C85.4424 204.083 85.4424 205.46 85.4424 206.858C85.4424 207.15 85.9228 207.171 85.9228 206.858C85.9228 205.481 85.9228 204.104 85.9228 202.706C85.9228 202.393 85.4424 202.393 85.4424 202.706Z" fill="#386190"/>
<path d="M87.5312 205.689C87.5312 206.524 87.5312 207.358 87.5312 208.193C87.5312 208.485 88.0116 208.506 88.0116 208.193C88.0116 207.358 88.0116 206.524 88.0116 205.689C87.9907 205.397 87.5312 205.397 87.5312 205.689Z" fill="#386190"/>
<path d="M80.0137 203.978C80.0137 205.189 80.0137 206.399 80.0137 207.63C80.0137 207.922 80.4941 207.943 80.4941 207.63C80.4941 206.42 80.4941 205.209 80.4941 203.978C80.4941 203.686 80.0137 203.686 80.0137 203.978Z" fill="#386190"/>
<path d="M56.8916 209.424C56.8916 210.968 56.8916 212.512 56.8916 214.077C56.8916 214.369 57.372 214.39 57.372 214.077C57.372 212.533 57.372 210.989 57.372 209.424C57.372 209.111 56.8916 209.111 56.8916 209.424Z" fill="#386190"/>
<path d="M60.5263 214.911C60.5263 213.367 60.5263 211.823 60.5263 210.258C60.5263 209.966 60.0459 209.945 60.0459 210.258C60.0459 211.802 60.0459 213.346 60.0459 214.911C60.0459 215.224 60.5263 215.224 60.5263 214.911Z" fill="#386190"/>
<path d="M62.0292 214.786C62.0292 214.181 62.0292 213.597 62.0292 212.992C62.0292 212.7 61.5488 212.679 61.5488 212.992C61.5488 213.597 61.5488 214.181 61.5488 214.786C61.5488 215.078 62.0292 215.078 62.0292 214.786Z" fill="#386190"/>
<path d="M65.3496 209.069C65.3496 210.697 65.3496 212.303 65.3496 213.93C65.3496 214.223 65.83 214.243 65.83 213.93C65.83 212.303 65.83 210.697 65.83 209.069C65.8091 208.756 65.3496 208.756 65.3496 209.069Z" fill="#386190"/>
<path d="M66.5615 211.343C66.5615 212.115 66.5615 212.867 66.5615 213.638C66.5615 213.931 67.0419 213.951 67.0419 213.638C67.0419 212.867 67.0419 212.115 67.0419 211.343C67.021 211.051 66.5615 211.051 66.5615 211.343Z" fill="#386190"/>
<path d="M68.2109 210.488C68.2109 211.323 68.2109 212.157 68.2109 212.992C68.2109 213.284 68.6913 213.305 68.6913 212.992C68.6913 212.157 68.6913 211.323 68.6913 210.488C68.6704 210.196 68.2109 210.196 68.2109 210.488Z" fill="#386190"/>
<path d="M73.5801 209.069C73.5801 210.759 73.5801 212.449 73.5801 214.139C73.5801 214.431 74.0605 214.452 74.0605 214.139C74.0605 212.449 74.0605 210.759 74.0605 209.069C74.0396 208.756 73.5801 208.756 73.5801 209.069Z" fill="#386190"/>
<path d="M79.0098 210.926C79.0098 211.865 79.0098 212.783 79.0098 213.722C79.0098 214.014 79.4901 214.035 79.4901 213.722C79.4901 212.783 79.4901 211.865 79.4901 210.926C79.4901 210.613 79.0098 210.613 79.0098 210.926Z" fill="#386190"/>
<path d="M86.4463 208.923C86.4463 210.717 86.4463 212.491 86.4463 214.285C86.4463 214.577 86.9267 214.598 86.9267 214.285C86.9267 212.491 86.9267 210.717 86.9267 208.923C86.9267 208.61 86.4463 208.61 86.4463 208.923Z" fill="#386190"/>
<path d="M88.7432 211.552C88.7432 212.407 88.7432 213.263 88.7432 214.118C88.7432 214.41 89.2235 214.431 89.2235 214.118C89.2235 213.263 89.2235 212.407 89.2235 211.552C89.2235 211.26 88.7432 211.26 88.7432 211.552Z" fill="#386190"/>
<path d="M92.6904 209.194C92.6904 210.53 92.6904 211.865 92.6904 213.2C92.6904 213.492 93.1708 213.513 93.1708 213.2C93.1708 211.865 93.1708 210.53 93.1708 209.194C93.1499 208.902 92.6904 208.902 92.6904 209.194Z" fill="#386190"/>
<path d="M62.7401 221.15C62.7401 219.606 62.7401 218.062 62.7401 216.497C62.7401 216.205 62.2598 216.184 62.2598 216.497C62.2598 218.041 62.2598 219.585 62.2598 221.15C62.2598 221.442 62.7401 221.442 62.7401 221.15Z" fill="#386190"/>
<path d="M64.453 221.066C64.453 220.273 64.453 219.501 64.453 218.708C64.453 218.416 63.9727 218.395 63.9727 218.708C63.9727 219.501 63.9727 220.273 63.9727 221.066C63.9935 221.379 64.453 221.379 64.453 221.066Z" fill="#386190"/>
<path d="M69.2773 215.641C69.2773 217.436 69.2773 219.209 69.2773 221.003C69.2773 221.295 69.7577 221.316 69.7577 221.003C69.7577 219.209 69.7577 217.436 69.7577 215.641C69.7577 215.328 69.2773 215.328 69.2773 215.641Z" fill="#386190"/>
<path d="M73.5801 216.497C73.5801 217.603 73.5801 218.688 73.5801 219.793C73.5801 220.085 74.0605 220.106 74.0605 219.793C74.0605 218.688 74.0605 217.603 74.0605 216.497C74.0396 216.184 73.5801 216.184 73.5801 216.497Z" fill="#386190"/>
<path d="M72.0762 217.144C72.0762 217.582 72.0762 217.999 72.0762 218.437C72.0762 218.729 72.5566 218.75 72.5566 218.437C72.5566 217.999 72.5566 217.582 72.5566 217.144C72.5357 216.831 72.0762 216.831 72.0762 217.144Z" fill="#386190"/>
<path d="M81.3701 215.141C81.3701 216.997 81.3701 218.854 81.3701 220.711C81.3701 221.003 81.8505 221.024 81.8505 220.711C81.8505 218.854 81.8505 216.997 81.8505 215.141C81.8505 214.828 81.3701 214.828 81.3701 215.141Z" fill="#386190"/>
<path d="M83.167 217.561C83.167 218.395 83.167 219.23 83.167 220.065C83.167 220.357 83.6474 220.377 83.6474 220.065C83.6474 219.23 83.6474 218.395 83.6474 217.561C83.6265 217.269 83.167 217.269 83.167 217.561Z" fill="#386190"/>
<path d="M87.7402 215.412C87.7402 217.144 87.7402 218.896 87.7402 220.628C87.7402 220.92 88.2206 220.941 88.2206 220.628C88.2206 218.896 88.2206 217.144 88.2206 215.412C88.2206 215.12 87.7402 215.12 87.7402 215.412Z" fill="#386190"/>
<path d="M96.0527 215.85C96.0527 217.352 96.0527 218.854 96.0527 220.357C96.0527 220.649 96.5331 220.669 96.5331 220.357C96.5331 218.854 96.5331 217.352 96.5331 215.85C96.5122 215.558 96.0527 215.558 96.0527 215.85Z" fill="#386190"/>
<path d="M97.3271 217.79C97.3271 218.5 97.3271 219.23 97.3271 219.939C97.3271 220.231 97.8075 220.252 97.8075 219.939C97.8075 219.23 97.8075 218.5 97.8075 217.79C97.8075 217.477 97.3271 217.477 97.3271 217.79Z" fill="#386190"/>
<path d="M91.9804 201.996C91.9804 200.891 91.9804 199.764 91.9804 198.658C91.9804 198.366 91.5 198.345 91.5 198.658C91.5 199.764 91.5 200.891 91.5 201.996C91.5209 202.289 91.9804 202.309 91.9804 201.996Z" fill="#386190"/>
<path d="M94.8633 197.302C94.8633 198.804 94.8633 200.286 94.8633 201.788C94.8633 202.08 95.3437 202.101 95.3437 201.788C95.3437 200.286 95.3437 198.804 95.3437 197.302C95.3228 197.01 94.8633 196.989 94.8633 197.302Z" fill="#386190"/>
<path d="M97.0359 188.372C98.1846 189.04 98.8112 190.292 98.7068 191.606C98.6859 191.898 99.1454 191.898 99.1872 191.606C99.3125 190.125 98.5815 188.727 97.2865 187.976C97.015 187.809 96.7644 188.205 97.0359 188.372Z" fill="#386190"/>
<path d="M49.2057 203.874C48.6418 204.792 48.5374 205.877 48.9133 206.879C49.0178 207.15 49.4773 207.045 49.3728 206.753C49.0387 205.856 49.1222 204.938 49.6235 204.104C49.7697 203.853 49.3728 203.603 49.2057 203.874Z" fill="#386190"/>
<path d="M46.8457 201.517C45.6343 203.04 45.0286 204.855 45.0704 206.795C45.0704 207.087 45.5508 207.108 45.5508 206.795C45.509 204.98 46.0729 203.269 47.2008 201.829C47.3679 201.621 47.0337 201.287 46.8457 201.517Z" fill="#386190"/>
<path d="M96.8259 208.172C97.6614 208.61 98.1835 209.445 98.1835 210.405C98.1835 210.697 98.6639 210.717 98.6639 210.405C98.6639 209.299 98.0582 208.276 97.0766 207.776C96.805 207.63 96.5544 208.026 96.8259 208.172Z" fill="#386190"/>
<path opacity="0.15" d="M75.1678 190.041C76.4418 189.874 79.4286 189.666 82.2691 191.377C83.0836 191.857 83.7102 192.399 84.2324 192.921C84.1697 193.88 84.0862 194.84 84.0235 195.8C80.9532 195.925 77.9039 196.05 74.8336 196.154C75.2513 196.175 78.5931 196.363 80.4102 199.075C81.2039 200.265 81.3919 201.454 81.4336 202.163C81.3292 202.914 80.995 204.521 79.7836 206.065C78.3216 207.922 76.4836 208.61 75.7735 208.84C76.1076 209.007 77.695 209.904 78.238 211.823C78.5513 212.95 78.3634 213.931 78.238 214.39C76.2121 216.58 74.1861 218.771 72.1602 220.982C81.4545 221.087 90.7698 221.191 100.064 221.295C100.419 221.108 101.088 220.67 101.505 219.856C102.195 218.521 101.86 216.914 101.088 215.954C99.6255 214.097 96.3046 214.744 95.9286 214.828C96.0331 214.765 97.7249 213.492 97.5787 211.427C97.4742 209.946 96.4508 209.048 96.2419 208.861C94.759 208.756 93.297 208.652 91.8141 208.548C91.9603 208.402 93.0672 207.191 92.8375 205.46C92.6495 204.124 91.7514 202.998 90.4774 202.476C92.4615 202.455 94.1742 202.414 95.5318 202.372C99.4793 202.268 100.377 202.205 101.088 201.454C102.048 200.411 102.362 198.387 101.401 197.135C100.879 196.467 100.169 196.217 99.7508 196.113C98.2052 196.05 96.6597 195.967 95.1141 195.904C95.3438 195.904 96.4508 195.925 97.2863 195.09C98.1008 194.256 98.0382 193.15 98.0173 192.628C97.9964 192.295 97.8711 190.918 96.8894 190.062C95.866 189.165 94.5502 189.415 92.1482 189.541C90.2685 189.645 88.3678 189.457 86.4881 189.541C82.5615 189.708 78.5931 189.895 75.1678 190.041Z" fill="#386190"/>
<path d="M104.136 215.787C118.527 215.787 132.939 215.787 147.329 215.787C151.423 215.787 155.537 215.787 159.631 215.787C160.028 215.787 160.028 215.161 159.631 215.161C145.241 215.161 130.829 215.161 116.438 215.161C112.345 215.161 108.23 215.161 104.136 215.161C103.74 215.161 103.74 215.787 104.136 215.787Z" fill="#386190"/>
<path d="M165.457 216.309C175.106 215.558 184.735 215.349 194.405 216.163C194.802 216.205 194.802 215.579 194.405 215.537C184.735 214.723 175.127 214.932 165.457 215.683C165.06 215.704 165.06 216.33 165.457 216.309Z" fill="#386190"/>
<path d="M191.607 219.605C196.808 220.064 201.967 218.771 207.147 218.437C212.473 218.103 217.819 218.437 223.083 219.376C223.48 219.438 223.647 218.833 223.25 218.771C218.07 217.853 212.807 217.498 207.543 217.79C202.238 218.082 196.933 219.459 191.607 218.979C191.21 218.938 191.21 219.564 191.607 219.605Z" fill="#386190"/>
<path d="M194.866 215.391C192.694 213.722 190.668 211.844 188.872 209.779C188.475 209.32 188.099 208.861 187.723 208.402C187.451 208.068 187.159 207.713 186.971 207.338C186.72 206.837 186.825 206.482 186.825 205.919C186.825 204.938 186.261 204.98 185.613 204.312C184.632 203.29 184.485 201.809 184.193 200.494C183.922 199.263 183.42 198.178 182.856 197.073C181.541 194.423 180.935 191.398 180.141 188.56C180.078 188.685 179.995 188.81 179.932 188.936C182.689 188.56 185.676 190.626 187.869 192.128C188.997 192.9 190.062 193.734 191.086 194.631C192.109 195.549 193.675 196.843 193.111 198.387C193.028 198.596 193.237 198.783 193.404 198.783C195.117 198.846 196.411 200.557 197.33 201.829C198.229 203.04 198.96 204.375 199.503 205.773C200.589 208.589 200.923 211.656 200.443 214.64C200.38 215.036 200.986 215.203 201.048 214.807C201.591 211.469 201.174 208.047 199.816 204.917C199.148 203.394 198.27 201.955 197.205 200.661C196.224 199.472 195.033 198.199 193.383 198.137C193.487 198.262 193.592 198.408 193.675 198.533C194.156 197.239 193.404 196.05 192.527 195.132C191.399 193.943 190.083 192.921 188.746 191.982C186.282 190.229 182.919 187.872 179.723 188.331C179.556 188.351 179.473 188.56 179.515 188.706C180.329 191.606 180.935 194.652 182.292 197.365C182.982 198.762 183.441 200.077 183.775 201.6C184.005 202.727 184.339 203.895 185.175 204.75C185.53 205.126 186.156 205.335 186.219 205.877C186.261 206.378 186.094 206.732 186.282 207.275C186.679 208.381 187.702 209.382 188.454 210.238C190.292 212.345 192.36 214.243 194.573 215.954C194.866 216.163 195.179 215.621 194.866 215.391Z" fill="#386190"/>
<path d="M198.437 201.642C199.168 198.95 201.34 196.614 203.053 194.485C203.513 193.922 203.951 193.38 204.411 192.837C204.787 192.378 205.267 191.523 205.914 191.418C206.186 191.377 206.311 191.544 206.604 191.356C206.917 191.168 207.042 190.792 207.209 190.5C208.463 188.226 210.468 186.578 212.577 185.097C214.227 183.928 215.856 182.76 216.671 180.84C216.462 180.778 216.274 180.736 216.065 180.674C215.209 183.845 215.209 186.995 215.752 190.229C216.316 193.588 216.441 196.843 215.522 200.181C213.768 206.545 208.943 210.822 204.035 214.869C203.721 215.12 204.16 215.558 204.473 215.308C209.277 211.343 214.018 207.15 215.919 201.016C216.817 198.095 217.068 195.007 216.65 191.982C216.399 190.187 216.002 188.435 215.94 186.599C215.877 184.638 216.128 182.697 216.65 180.82C216.754 180.423 216.19 180.298 216.044 180.653C215.084 182.948 212.723 184.116 210.844 185.556C209.883 186.286 208.985 187.1 208.17 187.997C207.815 188.393 207.481 188.831 207.189 189.269C206.959 189.624 206.604 190.584 206.228 190.709C205.977 190.792 205.706 190.646 205.413 190.772C204.995 190.939 204.724 191.439 204.452 191.752C203.533 192.858 202.614 193.943 201.737 195.07C200.213 196.989 198.479 199.034 197.811 201.433C197.727 201.871 198.333 202.038 198.437 201.642Z" fill="#386190"/>
<path d="M182.521 192.149C184.401 193.484 185.821 195.278 187.221 197.093C188.704 198.971 190.166 200.87 191.544 202.831C194.197 206.586 196.515 210.613 197.747 215.078C197.852 215.474 198.458 215.308 198.353 214.911C197.079 210.279 194.656 206.107 191.878 202.226C190.521 200.327 189.101 198.491 187.659 196.655C186.218 194.798 184.756 192.983 182.814 191.627C182.5 191.377 182.187 191.919 182.521 192.149Z" fill="#386190"/>
<path d="M213.85 186.077C210.53 194.798 202.864 201.308 200.671 210.53C200.588 210.926 201.172 211.093 201.277 210.697C203.449 201.475 211.135 194.965 214.456 186.244C214.602 185.869 213.997 185.702 213.85 186.077Z" fill="#386190"/>
<path d="M208.712 187.559C209.025 190.459 208.837 193.338 208.148 196.154C208.043 196.551 208.649 196.718 208.753 196.321C209.443 193.442 209.652 190.5 209.338 187.559C209.297 187.162 208.67 187.162 208.712 187.559Z" fill="#386190"/>
<path d="M210.614 193.463C212.577 192.232 214.436 190.855 216.191 189.332C216.504 189.061 216.044 188.623 215.752 188.894C214.039 190.375 212.222 191.731 210.301 192.921C209.946 193.15 210.259 193.693 210.614 193.463Z" fill="#386190"/>
<path d="M182.752 197.636C184.193 197.594 186.219 197.177 187.535 197.865C187.89 198.053 188.203 197.511 187.848 197.323C186.365 196.53 184.36 196.947 182.752 197.01C182.334 197.031 182.334 197.657 182.752 197.636Z" fill="#386190"/>
<path d="M190.646 194.465C190.395 196.488 190.437 198.47 190.73 200.494C190.792 200.891 191.398 200.724 191.335 200.327C191.043 198.366 191.043 196.426 191.273 194.465C191.335 194.068 190.709 194.068 190.646 194.465Z" fill="#386190"/>
<path d="M177.803 222.881C181.186 223.069 184.528 222.318 187.911 222.38C191.149 222.443 194.303 223.298 197.54 222.777C197.937 222.714 197.77 222.109 197.373 222.172C194.073 222.714 190.815 221.754 187.515 221.754C184.277 221.754 181.061 222.443 177.803 222.255C177.406 222.213 177.406 222.839 177.803 222.881Z" fill="#386190"/>
<path d="M216.942 215.036C219.365 214.703 221.809 214.598 224.252 214.703C226.654 214.807 229.035 215.099 231.458 214.89C233.818 214.703 236.158 214.327 238.539 214.348C240.941 214.369 243.322 214.64 245.703 214.953C246.099 214.995 246.099 214.369 245.703 214.327C243.322 214.035 240.941 213.743 238.539 213.722C236.032 213.701 233.568 214.118 231.061 214.285C228.659 214.452 226.278 214.139 223.877 214.056C221.495 213.972 219.135 214.118 216.796 214.431C216.378 214.494 216.545 215.099 216.942 215.036Z" fill="#386190"/>
<path d="M0.226909 219.042C6.70163 219.939 13.1137 218.5 19.5675 218.061C22.9929 217.832 26.3555 218.082 29.7809 218.395C33.2062 218.708 36.6315 218.854 40.0778 218.875C44.0044 218.896 47.9519 218.792 51.8785 218.667C52.2753 218.646 52.2753 218.02 51.8785 218.041C47.4715 218.166 43.0436 218.291 38.6366 218.228C34.3132 218.166 30.0524 217.686 25.7498 217.415C17.27 216.851 8.85291 219.605 0.393998 218.437C-0.0028393 218.395 -0.169929 218.979 0.226909 219.042Z" fill="#386190"/>
<path d="M36.7986 222.568C39.2423 222.568 41.6651 221.984 44.0879 221.796C46.5525 221.608 49.017 221.567 51.4816 221.671C51.8784 221.692 51.8784 221.066 51.4816 221.045C49.017 220.941 46.5525 220.962 44.0879 221.17C41.6651 221.358 39.2214 221.942 36.7986 221.942C36.4018 221.942 36.4018 222.568 36.7986 222.568Z" fill="#386190"/>
<path d="M23.5361 87.4536C23.5361 103.727 23.5361 120.001 23.5361 136.254C23.5361 152.507 23.5361 168.802 23.5361 185.055C23.5361 194.235 23.5361 203.415 23.5361 212.595C23.5361 212.991 24.1627 212.991 24.1627 212.595C24.1627 196.321 24.1627 180.047 24.1627 163.794C24.1627 147.542 24.1627 131.247 24.1627 114.994C24.1627 105.814 24.1627 96.6337 24.1627 87.4536C24.1627 87.0571 23.5361 87.0571 23.5361 87.4536Z" fill="#386190"/>
<path d="M76.1279 79.8173C76.1279 93.7753 76.1279 107.733 76.1279 121.691C76.1279 135.649 76.1279 149.607 76.1279 163.565C76.1279 171.472 76.1279 179.401 76.1279 187.308C76.1279 187.704 76.7545 187.704 76.7545 187.308C76.7545 173.35 76.7545 159.392 76.7545 145.434C76.7545 131.476 76.7545 117.518 76.7545 103.56C76.7545 95.653 76.7545 87.7247 76.7545 79.8173C76.7545 79.4209 76.1279 79.4209 76.1279 79.8173Z" fill="#386190"/>
<path d="M77.3806 139.425C89.2231 144.349 101.086 149.231 112.992 154.03C113.368 154.176 113.535 153.571 113.159 153.425C101.254 148.626 89.3902 143.744 77.5477 138.82C77.1717 138.674 77.0255 139.279 77.3806 139.425Z" fill="#386190"/>
<path d="M110.548 153.613C110.548 169.302 110.548 185.013 110.548 200.703C110.548 205.147 110.548 209.591 110.548 214.035C110.548 214.431 111.174 214.431 111.174 214.035C111.174 198.345 111.174 182.635 111.174 166.945C111.174 162.501 111.174 158.057 111.174 153.613C111.174 153.216 110.548 153.216 110.548 153.613Z" fill="#386190"/>
<path d="M167.61 213.805C167.61 200.661 167.61 187.537 167.61 174.393C167.61 173.997 166.983 173.997 166.983 174.393C166.983 187.537 166.983 200.661 166.983 213.805C166.983 214.202 167.61 214.202 167.61 213.805Z" fill="#386190"/>
<path d="M161.783 175.812C174.544 170.325 187.347 164.817 199.482 158.015C202.949 156.075 206.375 154.009 209.716 151.819C210.051 151.589 209.737 151.047 209.403 151.276C197.749 158.891 185.175 164.9 172.476 170.492C168.821 172.098 165.145 173.684 161.49 175.249C161.093 175.437 161.428 175.958 161.783 175.812Z" fill="#386190"/>
<path d="M177.885 167.717C177.885 150.859 177.885 133.98 177.885 117.122C177.885 112.323 177.885 107.545 177.885 102.747C177.885 102.35 177.259 102.35 177.259 102.747C177.259 119.605 177.259 136.484 177.259 153.342C177.259 158.14 177.259 162.918 177.259 167.717C177.259 168.113 177.885 168.113 177.885 167.717Z" fill="#386190"/>
<path d="M174.23 104.019C189.791 104.019 205.351 104.019 220.911 104.019C225.36 104.019 229.808 104.019 234.236 104.019C234.633 104.019 234.633 103.394 234.236 103.394C218.676 103.394 203.116 103.394 187.556 103.394C183.107 103.394 178.658 103.394 174.23 103.394C173.813 103.394 173.813 104.019 174.23 104.019Z" fill="#386190"/>
<path d="M228.43 106.085C228.43 133.312 228.43 160.54 228.43 187.767C228.43 195.403 228.43 203.039 228.43 210.696C228.43 211.093 229.056 211.093 229.056 210.696C229.056 183.469 229.056 156.242 229.056 129.014C229.056 121.378 229.056 113.742 229.056 106.085C229.056 105.688 228.43 105.688 228.43 106.085Z" fill="#386190"/>
<path d="M20.8624 88.1421C35.4619 83.4477 51.043 82.4254 66.1855 80.6937C70.6133 80.193 75.0412 79.6922 79.4691 79.1706C79.8659 79.1289 79.8659 78.503 79.4691 78.5447C71.5741 79.4419 63.6582 80.3599 55.7632 81.257C48.2651 82.1124 40.7252 82.9261 33.3106 84.3657C29.0498 85.1794 24.8308 86.2226 20.6953 87.537C20.3194 87.6622 20.4865 88.2673 20.8624 88.1421Z" fill="#386190"/>
<path d="M28.027 103.331C28.027 99.8468 28.027 96.3625 28.027 92.8991C28.027 92.5027 27.4004 92.5027 27.4004 92.8991C27.4004 96.3834 27.4004 99.8676 27.4004 103.331C27.4004 103.727 28.027 103.727 28.027 103.331Z" fill="#386190"/>
<path d="M27.5252 92.8574C29.572 92.8574 31.6189 92.8574 33.6657 92.8574C34.0625 92.8574 34.0625 92.2314 33.6657 92.2314C31.6189 92.2314 29.572 92.2314 27.5252 92.2314C27.1283 92.2314 27.1283 92.8574 27.5252 92.8574Z" fill="#386190"/>
<path d="M33.375 92.7114C33.375 96.3417 33.375 99.972 33.375 103.581C33.375 103.978 34.0016 103.978 34.0016 103.581C34.0016 99.9511 34.0016 96.3208 34.0016 92.7114C34.0016 92.315 33.375 92.315 33.375 92.7114Z" fill="#386190"/>
<path d="M27.7967 103.998C29.6138 103.998 31.4309 103.998 33.248 103.998C33.6449 103.998 33.6449 103.373 33.248 103.373C31.4309 103.373 29.6138 103.373 27.7967 103.373C27.3999 103.373 27.379 103.998 27.7967 103.998Z" fill="#386190"/>
<path d="M45.6549 103.248C45.6549 99.7633 45.6549 96.279 45.6549 92.8156C45.6549 92.4192 45.0283 92.4192 45.0283 92.8156C45.0283 96.2999 45.0283 99.7842 45.0283 103.248C45.0283 103.644 45.6549 103.644 45.6549 103.248Z" fill="#386190"/>
<path d="M45.1746 92.7531C47.2215 92.7531 49.2683 92.7531 51.3152 92.7531C51.712 92.7531 51.712 92.1272 51.3152 92.1272C49.2683 92.1272 47.2215 92.1272 45.1746 92.1272C44.7569 92.1272 44.7569 92.7531 45.1746 92.7531Z" fill="#386190"/>
<path d="M51.002 92.6279C51.002 96.2582 51.002 99.8885 51.002 103.498C51.002 103.894 51.6285 103.894 51.6285 103.498C51.6285 99.8676 51.6285 96.2373 51.6285 92.6279C51.6285 92.2315 51.002 92.2315 51.002 92.6279Z" fill="#386190"/>
<path d="M45.4246 103.894C47.2417 103.894 49.0588 103.894 50.8759 103.894C51.2727 103.894 51.2727 103.268 50.8759 103.268C49.0588 103.268 47.2417 103.268 45.4246 103.268C45.0277 103.268 45.0277 103.894 45.4246 103.894Z" fill="#386190"/>
<path d="M63.7623 102.851C63.7623 99.3668 63.7623 95.8825 63.7623 92.4191C63.7623 92.0227 63.1357 92.0227 63.1357 92.4191C63.1357 95.9034 63.1357 99.3877 63.1357 102.851C63.1357 103.247 63.7623 103.247 63.7623 102.851Z" fill="#386190"/>
<path d="M63.2625 92.3566C65.3093 92.3566 67.3562 92.3566 69.403 92.3566C69.7999 92.3566 69.7999 91.7307 69.403 91.7307C67.3562 91.7307 65.3093 91.7307 63.2625 91.7307C62.8656 91.7307 62.8656 92.3566 63.2625 92.3566Z" fill="#386190"/>
<path d="M69.1104 92.2314C69.1104 95.8617 69.1104 99.492 69.1104 103.101C69.1104 103.498 69.7369 103.498 69.7369 103.101C69.7369 99.4712 69.7369 95.8409 69.7369 92.2314C69.7369 91.8141 69.1104 91.8141 69.1104 92.2314Z" fill="#386190"/>
<path d="M63.533 103.498C65.3501 103.498 67.1672 103.498 68.9843 103.498C69.3811 103.498 69.3811 102.872 68.9843 102.872C67.1672 102.872 65.3501 102.872 63.533 102.872C63.1361 102.872 63.1361 103.498 63.533 103.498Z" fill="#386190"/>
<path d="M21.6357 132.665C21.6357 146.415 21.6357 160.143 21.6357 173.893C21.6357 174.289 22.2623 174.289 22.2623 173.893C22.2623 160.143 22.2623 146.415 22.2623 132.665C22.2623 132.248 21.6357 132.248 21.6357 132.665Z" fill="#386190"/>
<path d="M26.0225 176.521C26.0225 182.906 26.0225 189.269 26.0225 195.654C26.0225 196.05 26.649 196.05 26.649 195.654C26.649 189.269 26.649 182.906 26.649 176.521C26.649 176.125 26.0225 176.125 26.0225 176.521Z" fill="#386190"/>
<path d="M18.879 86.3478C25.6044 84.0111 32.4341 82.0916 39.3892 80.6102C39.7861 80.5268 39.619 79.9217 39.2222 80.0052C32.2671 81.4865 25.4164 83.406 18.7119 85.7428C18.336 85.8679 18.5031 86.473 18.879 86.3478Z" fill="#386190"/>
<path d="M77.8828 142.409C84.9423 145.059 91.8139 148.209 98.6646 151.36C99.0196 151.527 99.3538 150.984 98.9779 150.817C92.0645 147.646 85.1512 144.475 78.0499 141.804C77.674 141.658 77.5069 142.263 77.8828 142.409Z" fill="#386190"/>
<path d="M81.9762 164.462C81.9762 160.978 81.9762 157.494 81.9762 154.03C81.9762 153.634 81.3496 153.634 81.3496 154.03C81.3496 157.514 81.3496 160.999 81.3496 164.462C81.3496 164.879 81.9762 164.879 81.9762 164.462Z" fill="#386190"/>
<path d="M81.4959 153.988C83.5428 153.988 85.5896 153.988 87.6365 153.988C88.0333 153.988 88.0333 153.363 87.6365 153.363C85.5896 153.363 83.5428 153.363 81.4959 153.363C81.0782 153.363 81.0782 153.988 81.4959 153.988Z" fill="#386190"/>
<path d="M87.3223 153.863C87.3223 157.494 87.3223 161.124 87.3223 164.733C87.3223 165.13 87.9489 165.13 87.9489 164.733C87.9489 161.103 87.9489 157.473 87.9489 153.863C87.9489 153.446 87.3223 153.446 87.3223 153.863Z" fill="#386190"/>
<path d="M81.7459 165.13C83.563 165.13 85.3801 165.13 87.1972 165.13C87.594 165.13 87.594 164.504 87.1972 164.504C85.3801 164.504 83.563 164.504 81.7459 164.504C81.349 164.504 81.349 165.13 81.7459 165.13Z" fill="#386190"/>
<path d="M170.388 175.082C184.026 169.97 197.101 163.461 209.403 155.678C209.737 155.47 209.424 154.927 209.09 155.136C196.83 162.897 183.797 169.386 170.221 174.477C169.845 174.623 170.012 175.228 170.388 175.082Z" fill="#386190"/>
<path d="M230.352 107.566C230.372 123.715 230.393 139.843 230.393 155.991C230.393 156.388 231.02 156.388 231.02 155.991C230.999 139.843 230.978 123.715 230.978 107.566C230.978 107.17 230.352 107.17 230.352 107.566Z" fill="#386190"/>
<path d="M185.112 101.912C201.57 101.912 218.008 101.912 234.466 101.912C234.863 101.912 234.863 101.286 234.466 101.286C218.008 101.286 201.57 101.286 185.112 101.286C184.715 101.286 184.715 101.912 185.112 101.912Z" fill="#386190"/>
<path d="M183.942 122.651C183.942 119.167 183.942 115.682 183.942 112.219C183.942 111.823 183.315 111.823 183.315 112.219C183.315 115.703 183.315 119.187 183.315 122.651C183.315 123.068 183.942 123.068 183.942 122.651Z" fill="#386190"/>
<path d="M183.462 112.177C185.509 112.177 187.555 112.177 189.602 112.177C189.999 112.177 189.999 111.551 189.602 111.551C187.555 111.551 185.509 111.551 183.462 111.551C183.065 111.551 183.065 112.177 183.462 112.177Z" fill="#386190"/>
<path d="M189.289 112.052C189.289 115.682 189.289 119.313 189.289 122.922C189.289 123.318 189.916 123.318 189.916 122.922C189.916 119.292 189.916 115.661 189.916 112.052C189.916 111.635 189.289 111.635 189.289 112.052Z" fill="#386190"/>
<path d="M183.734 123.319C185.551 123.319 187.368 123.319 189.185 123.319C189.582 123.319 189.582 122.693 189.185 122.693C187.368 122.693 185.551 122.693 183.734 122.693C183.316 122.693 183.316 123.319 183.734 123.319Z" fill="#386190"/>
<path d="M212.954 122.651C212.954 119.167 212.954 115.682 212.954 112.219C212.954 111.823 212.327 111.823 212.327 112.219C212.327 115.703 212.327 119.187 212.327 122.651C212.327 123.068 212.954 123.068 212.954 122.651Z" fill="#386190"/>
<path d="M212.452 112.177C214.499 112.177 216.546 112.177 218.592 112.177C218.989 112.177 218.989 111.551 218.592 111.551C216.546 111.551 214.499 111.551 212.452 111.551C212.055 111.551 212.055 112.177 212.452 112.177Z" fill="#386190"/>
<path d="M218.3 112.052C218.3 115.682 218.3 119.313 218.3 122.922C218.3 123.318 218.926 123.318 218.926 122.922C218.926 119.292 218.926 115.661 218.926 112.052C218.926 111.635 218.3 111.635 218.3 112.052Z" fill="#386190"/>
<path d="M212.724 123.319C214.541 123.319 216.359 123.319 218.176 123.319C218.573 123.319 218.573 122.693 218.176 122.693C216.359 122.693 214.541 122.693 212.724 122.693C212.328 122.693 212.328 123.319 212.724 123.319Z" fill="#386190"/>
<ellipse cx="200.213" cy="28.4505" rx="12.5108" ry="12.7061" stroke="#386190" stroke-width="3"/>
<path d="M185.781 77.5434C189.248 75.1857 193.467 76.6671 197.059 77.8772C198.751 78.4405 200.464 78.9621 202.239 79.129C204.161 79.3168 206.082 79.1082 207.962 78.7326C215.418 77.1887 223.48 71.931 231.146 75.4987C231.501 75.6656 231.835 75.1232 231.459 74.9562C225.82 72.3274 219.616 74.3929 214.102 76.2707C210.886 77.3765 207.565 78.4822 204.119 78.5657C200.589 78.6491 197.498 77.2095 194.177 76.2915C191.295 75.4778 188.037 75.2483 185.447 77.0009C185.133 77.2304 185.447 77.7729 185.781 77.5434Z" fill="#386190"/>
<path d="M29.6361 66.1726C35.6722 67.9043 41.6039 65.0668 47.264 63.2934C50.3552 62.3336 53.6134 61.5617 56.8717 61.9789C60.1926 62.4171 63.2211 64.0027 66.2705 65.3172C69.3616 66.6524 72.5781 67.7582 76.0034 67.2158C76.4003 67.1532 76.2332 66.5481 75.8364 66.6107C69.299 67.6539 63.8268 62.5423 57.6445 61.4573C51.6084 60.3933 45.8647 63.2725 40.2254 64.9416C36.8209 65.9431 33.2912 66.5481 29.8032 65.5467C29.4063 65.4423 29.2393 66.0474 29.6361 66.1726Z" fill="#386190"/>
<path d="M83.6883 75.2274C85.9231 75.1648 87.8864 74.1633 89.8706 73.2662C91.082 72.7237 92.3351 72.2021 93.6719 72.0978C95.1548 71.9726 96.4497 72.4942 97.7238 73.2036C100.063 74.4971 102.235 75.6864 104.93 76.1036C107.478 76.5209 110.068 76.3331 112.553 75.582C112.929 75.4569 112.783 74.8518 112.386 74.977C109.629 75.8115 106.705 75.9159 103.885 75.2482C102.548 74.9353 101.254 74.4345 100.042 73.7878C98.8934 73.1618 97.8073 72.4107 96.5959 71.9309C91.9383 70.074 88.1997 74.4554 83.6883 74.5806C83.2914 74.6223 83.2914 75.2482 83.6883 75.2274Z" fill="#386190"/>
<path d="M147.788 55.7822C153.804 58.578 160.55 58.4528 166.941 57.2218C174.168 55.8239 180.977 52.6318 188.454 52.757C192.673 52.8404 196.85 53.7584 200.735 55.4275C201.111 55.5944 201.424 55.052 201.048 54.8851C194.782 52.1728 187.806 51.4425 181.123 52.8404C177.468 53.6124 173.938 54.8851 170.325 55.8239C166.899 56.7002 163.39 57.3261 159.861 57.4513C155.83 57.5765 151.799 56.9715 148.123 55.2606C147.747 55.0728 147.433 55.6153 147.788 55.7822Z" fill="#386190"/>
<path d="M75.7282 170.471C76.3757 173.872 77.0023 177.294 77.6498 180.694C66.8725 184.596 61.6301 187.287 61.9642 188.79C62.3611 190.605 70.82 190.667 87.3619 188.998C86.6517 181.905 85.9416 174.811 85.2315 167.696C82.0568 168.635 78.8821 169.553 75.7282 170.471Z" fill="#386190" stroke="#386190" stroke-width="3"/>
<path d="M126.168 127.846C121.656 129.703 119.756 129.244 114.054 130.809C103.548 133.688 95.9454 139.071 91.2043 143.139C91.434 150.901 91.6638 158.662 91.8935 166.424C91.4131 166.987 86.1498 172.954 78.1713 172.14C72.6782 171.577 69.2529 168.114 68.3339 167.112C68.1877 159.956 68.313 152.32 68.7934 144.287C69.0858 139.634 69.4617 135.128 69.9421 130.809C70.6522 129.807 71.7383 128.368 73.1377 126.699C84.1238 113.638 97.2821 107.838 104.446 104.792C111.589 101.746 116.059 99.8469 122.722 99.3045C124.497 99.1584 142.25 97.9066 145.112 105.021C147.764 111.51 137.3 123.277 126.168 127.846Z" fill="white" stroke="#386190" stroke-width="3"/>
<path opacity="0.16" d="M143.963 102.83C139.995 100.097 131.244 111.739 113.825 122.714C97.0739 133.25 88.3016 133.083 83.2472 143.327C81.7016 146.436 80.0934 151.36 79.1117 156.367C77.9003 162.668 77.9003 168.051 78.1718 171.869C79.5294 171.806 81.1377 171.619 82.8712 171.16C87.0694 170.054 90.0561 167.947 91.8105 166.465C91.5808 158.558 91.3301 150.65 91.1004 142.764C94.0245 140.385 98.6821 136.985 104.969 134.085C116.728 128.639 121.135 130.976 130.826 125.405C133.061 124.133 145.697 116.851 145.405 107.337C145.321 105.814 145.3 103.749 143.963 102.83Z" fill="#386190"/>
<path opacity="0.25" d="M145.593 106.586C144.715 105.877 141.311 110.634 133.144 116.455C122.994 123.673 118.106 123.59 106.932 130.308C102.901 132.728 97.074 136.609 90.6201 142.514C91.8733 141.971 93.8992 141.053 96.2594 139.697C101.063 136.901 102.233 135.19 105.888 133.354C107.204 132.707 109.668 132.04 114.577 130.767C123.161 128.535 124.393 128.639 127.505 127.241C131.62 125.405 134.314 123.089 135.734 121.837C142.543 115.87 146.7 107.462 145.593 106.586Z" fill="#386190"/>
<path opacity="0.2" d="M90.85 142.743C88.1766 152.361 85.524 162 82.8506 171.619C84.0411 171.306 85.5031 170.805 87.0905 169.97C89.3671 168.76 90.9753 167.321 92.0196 166.215C91.6228 158.391 91.2468 150.567 90.85 142.743Z" fill="#386190"/>
<path d="M143.672 203.061C144.319 206.461 144.946 209.883 145.593 213.284C135.84 218.187 131.203 221.233 131.621 222.422C132.143 223.862 140.017 222.61 155.222 218.688C154.533 212.554 153.864 206.42 153.175 200.286C150 201.225 146.847 202.143 143.672 203.061Z" fill="#386190" stroke="#386190" stroke-width="3"/>
<path d="M152.026 97.0304C152.757 102.664 153.696 111.155 154.156 121.525C154.845 137.527 153.843 146.436 153.676 158.266C153.529 168.635 154.01 183.511 156.976 201.85C155.367 202.915 151.733 205.022 146.595 205.376C141.708 205.71 137.969 204.292 136.215 203.499C135.755 194.611 134.941 185.159 133.625 175.228C131.202 156.931 127.547 140.448 123.495 126.01C120.989 122.547 118.461 119.104 115.955 115.641C125.082 109.194 134.189 102.768 143.316 96.321C146.198 96.5714 149.101 96.8009 152.026 97.0304Z" fill="white" stroke="#386190" stroke-width="3"/>
<path d="M119.402 117.435C118.755 116.538 118.128 115.62 117.481 114.723C117.293 115.432 117.105 116.142 116.917 116.872C120.008 114.952 123.037 112.929 125.94 110.717C128.363 108.881 130.618 106.857 133.062 105.063C134.607 103.915 136.195 102.83 137.782 101.746C139.307 100.723 140.852 99.4297 142.523 98.616C143.421 98.1778 144.487 98.2404 145.447 98.2404C147.285 98.2404 149.103 98.303 150.92 98.4073C152.925 98.5117 152.925 95.3821 150.92 95.2778C149.103 95.1943 147.265 95.1108 145.447 95.1108C144.278 95.1108 143.066 95.1108 141.959 95.4655C140.226 96.0289 138.659 97.385 137.176 98.4073C135.464 99.5548 133.772 100.702 132.101 101.912C129.511 103.79 127.13 105.897 124.603 107.838C121.637 110.112 118.525 112.198 115.35 114.16C114.682 114.577 114.285 115.599 114.786 116.309C115.434 117.206 116.061 118.124 116.708 119.021C117.857 120.648 120.572 119.083 119.402 117.435Z" fill="white"/>
<path opacity="0.14" d="M131.266 99.5341C134.44 108.902 137.385 119.334 139.725 130.746C145.552 159.309 145.656 184.721 143.964 204.688C144.967 205.043 146.241 205.356 147.724 205.397C152.423 205.523 155.807 202.81 156.893 201.871C155.974 197.26 154.783 190.355 154.073 181.926C152.528 163.67 154.47 153.321 154.783 137.798C154.971 128.368 154.616 114.973 151.964 98.5952C145.051 98.9082 138.158 99.2211 131.266 99.5341Z" fill="#386190"/>
<path opacity="0.2" d="M152.654 108.234C152.069 128.785 151.067 149.92 149.605 171.619C148.853 182.822 147.975 193.859 147.015 204.709C147.975 204.876 149.688 205.042 151.714 204.479C154.346 203.728 155.975 202.163 156.643 201.433C154.304 187.872 153.719 176.876 153.594 169.511C153.364 155.574 154.68 148.46 154.304 132.186C154.053 121.837 153.26 113.45 152.654 108.234Z" fill="#386190"/>
<path d="M67.2301 23.4642C67.5016 22.8383 64.8282 21.5447 65.0997 20.8145C65.3712 20.0634 68.6921 19.8756 70.9269 21.5238C73.2662 23.2347 73.12 25.7383 74.4567 28.9514C75.9814 32.5608 78.3833 34.522 82.0384 37.5264C84.2314 39.3416 92.7948 46.1432 105.139 45.7676C110.736 45.6007 115.415 43.9942 118.882 42.3042C118.401 48.2922 117.9 54.301 117.42 60.2889C114.579 60.9357 110.673 61.499 106.099 61.1026C89.4739 59.663 78.801 46.8526 75.501 42.9093C73.4959 40.51 70.7598 36.817 68.2535 31.7889C66.2902 32.373 63.2408 33.0407 59.5857 32.6651C56.9958 32.4148 53.9047 31.6219 53.9256 30.8917C53.9464 29.932 59.2724 29.2852 59.2307 28.9514C59.1889 28.6593 54.9908 29.8068 53.9256 28.242C53.0901 27.011 54.2597 24.2361 56.223 23.1095C56.8287 22.7757 57.518 22.567 59.2307 22.5879C63.8674 22.5879 66.9794 24.0275 67.2301 23.4642Z" fill="white" stroke="#386190" stroke-width="3"/>
<path d="M53.8637 27.0528C54.9289 26.8025 56.1612 27.3241 57.2473 27.3658C58.2081 27.4075 59.1688 27.3241 60.1087 27.1363C60.5055 27.0528 60.3384 26.4478 59.9416 26.5312C58.7511 26.7607 57.5606 26.8233 56.3492 26.6564C55.4302 26.5312 54.6156 26.2391 53.6966 26.4478C53.2998 26.5312 53.4669 27.1363 53.8637 27.0528Z" fill="#386190"/>
<path d="M54.7414 24.9873C55.9946 24.7369 57.1015 25.2585 58.3129 25.3211C59.3781 25.3837 60.4433 25.1751 61.4876 24.9038C61.8845 24.7995 61.7174 24.1945 61.3206 24.2988C59.963 24.6535 58.6471 24.8204 57.2478 24.5283C56.3079 24.3405 55.5142 24.1736 54.5534 24.3614C54.1775 24.4657 54.3446 25.0707 54.7414 24.9873Z" fill="#386190"/>
<path d="M66.2913 25.6133C67.3565 26.74 68.7976 27.3242 70.3432 27.2824C70.74 27.2616 70.74 26.6357 70.3432 26.6565C68.9438 26.7191 67.6906 26.1975 66.7508 25.1752C66.4584 24.8831 66.0197 25.3212 66.2913 25.6133Z" fill="#386190"/>
<path opacity="0.18" d="M53.926 28.0751C53.9887 27.5118 58.5419 27.3657 62.7191 27.9708C64.9748 28.2838 67.1679 28.5967 69.2356 29.5773C73.747 31.6846 75.23 35.7113 77.5692 39.4042C77.5692 39.4042 82.8116 47.6037 92.1895 52.1937C101.505 56.7421 112.136 53.6959 118.13 51.2757C117.9 54.2801 117.671 57.2845 117.441 60.2889C111.906 61.4156 107.478 61.1443 104.638 60.7479C88.8269 58.5155 78.9059 46.3727 74.9584 41.5532C71.7628 37.6516 69.6325 34.063 68.3375 31.622C66.2698 32.3731 63.1995 33.145 59.5444 32.7695C57.0172 32.4983 54.0305 31.6637 54.0513 30.9335C54.0931 29.9946 59.1267 29.4313 59.0849 29.2226C59.064 29.1183 57.6438 29.4313 55.8893 28.9931C55.2001 28.8262 53.9051 28.3881 53.926 28.0751Z" fill="#386190"/>
<path opacity="0.24" d="M101.359 57.1803C108.815 57.2846 114.58 54.3637 117.587 52.5068C117.483 55.1774 117.357 57.8271 117.253 60.4977C113.118 61.1862 105.87 61.7704 97.5991 59.1206C82.6237 54.3428 75.2717 42.4504 73.3711 39.1331C73.9768 40.218 83.8142 56.9508 101.359 57.1803Z" fill="#386190"/>
<path opacity="0.19" d="M61.0276 31.4968C65.4973 31.5176 68.5049 30.85 68.5676 31.163C68.6093 31.4133 66.7505 32.1644 64.7872 32.54C59.0852 33.6249 53.8637 31.2673 53.9263 30.9335C53.989 30.704 56.3283 31.4759 61.0276 31.4968Z" fill="#386190"/>
<ellipse cx="65.9143" cy="8.50495" rx="5.88991" ry="5.88361" fill="#386190"/>
<ellipse cx="64.7246" cy="8.06669" rx="6.68358" ry="6.6973" stroke="#386190" stroke-width="2"/>
<path d="M65.6427 4.39474C64.3269 4.31129 60.9433 5.58398 62.1965 7.4826C62.9275 8.58838 64.3477 7.85814 65.3712 8.12937C66.687 8.48406 66.5408 10.0697 65.7262 10.8417C64.8699 11.6345 63.6585 11.5093 62.8439 10.7791C62.5515 10.5079 62.092 10.946 62.4053 11.2172C64.0553 12.7194 67.0003 11.864 67.0003 9.42294C67.0003 8.31715 66.2484 7.60778 65.2041 7.4826C64.4313 7.37828 62.2591 7.96246 62.7604 6.37681C63.0946 5.29189 64.7028 4.95807 65.6636 5.02066C66.0604 5.04152 66.0604 4.41561 65.6427 4.39474Z" fill="#386190"/>
<path d="M64.9323 4.6867C64.995 3.99819 65.0576 3.33054 65.1203 2.64204C65.162 2.24562 64.5355 2.24562 64.4937 2.64204C64.431 3.33054 64.3684 3.99819 64.3057 4.6867C64.2639 5.08311 64.8905 5.08311 64.9323 4.6867Z" fill="#386190"/>
<path d="M64.5157 12.156C64.5783 12.6358 64.641 13.1366 64.6828 13.6164C64.7245 14.0128 65.3511 14.0128 65.3093 13.6164C65.2467 13.1366 65.184 12.6358 65.1423 12.156C65.1005 11.7595 64.4739 11.7595 64.5157 12.156Z" fill="#386190"/>
<path d="M125.19 40.8228C124.501 40.8646 122.182 40.9689 119.217 41.6991C117.525 42.1164 116.188 42.5963 115.415 42.9092C114.016 45.7467 112.22 50.1281 111.551 55.6779C110.591 63.5853 112.512 68.6761 113.828 76.5418C114.726 81.9455 115.457 89.7695 114.455 99.659C116.585 101.599 122.141 106.127 130.579 107.295C142.526 108.964 151.298 102.663 153.115 101.307C154.222 94.4639 155.266 87.4327 156.206 80.2347C157.814 68.0502 159.026 56.2621 159.924 44.933C154.138 39.4876 149.126 38.0271 145.596 37.735C138.808 37.1508 132.667 40.4056 125.19 40.8228Z" fill="#6692BC"/>
<path opacity="0.17" d="M134.568 46.0804C135.863 47.4157 137.639 49.4395 139.226 52.1935C146.849 65.4212 142.129 80.8605 140.02 87.7038C138.558 92.5025 135.78 99.5337 130.308 107.128C132.396 107.483 135.028 107.691 138.036 107.399C145.179 106.69 150.358 103.456 152.948 101.537C154.912 90.3953 156.582 78.5446 157.877 66.0263C158.629 58.6822 159.193 51.5259 159.611 44.62C158.796 43.8271 157.543 42.7631 155.872 41.699C153.178 39.9673 148.938 37.2759 144.155 38.1104C138.056 39.1536 134.965 45.2459 134.568 46.0804Z" fill="#6692BC"/>
<path opacity="0.11" d="M158.671 49.3977C157.606 52.3812 155.956 57.1382 154.285 63.1053C149.314 80.6101 149.669 88.121 143.633 97.1551C141.795 99.9091 138.704 103.811 133.503 107.67C136.072 107.65 139.79 107.337 144.03 105.939C147.873 104.666 150.818 102.955 152.823 101.557C154.452 92.8363 155.893 83.4267 156.958 73.3494C157.814 64.9622 158.378 56.9504 158.671 49.3977Z" fill="#6692BC"/>
<path d="M148.98 89.5609C148.541 88.7472 149.001 87.5371 149.69 86.8903C150.964 85.6802 153.282 86.1392 154.327 87.4536C154.473 87.6414 155.183 88.5177 154.89 89.2688C154.264 90.7918 149.878 91.1883 148.98 89.5609Z" fill="white" stroke="#386190" stroke-width="3"/>
<path d="M154.869 41.3862C157.981 43.5352 161.824 46.6648 165.521 51.0462C169.552 55.8032 172.183 60.6019 173.938 64.6286C175.421 68.0711 176.319 71.1381 176.883 73.454C175.024 77.7311 171.536 84.032 165.103 89.5609C162.784 91.5638 160.487 93.1078 158.377 94.3179C157.27 95.5488 155.725 97.1136 153.678 98.7201C152.341 99.7842 150.524 101.203 150.106 100.848C149.772 100.556 150.357 99.1166 151.255 98.1151C152.32 96.9467 153.636 96.592 153.615 96.5294C153.594 96.4668 152.425 96.6755 151.339 97.51C150.086 98.4906 150.148 99.4087 149.522 99.5547C148.206 99.8677 145.177 96.6964 145.637 93.4833C146.013 90.7919 148.665 89.3523 149.563 88.8515C152.028 87.4954 154.43 87.7458 155.307 87.8709C158.44 83.0097 161.573 78.1692 164.706 73.308C163.85 72.6194 162.722 71.6388 161.489 70.3661C160.048 68.8848 155.996 64.6703 154.054 58.891C151.443 51.1297 153.845 43.9734 154.869 41.3862Z" fill="white" stroke="#386190" stroke-width="3"/>
<path d="M146.138 96.1329C146.911 94.4221 148.227 93.0868 149.939 92.3357C150.315 92.1688 149.981 91.6263 149.626 91.7932C147.83 92.5861 146.389 94.0257 145.595 95.82C145.428 96.1746 145.971 96.4876 146.138 96.1329Z" fill="#386190"/>
<path d="M148.436 99.0331C147.789 97.0719 149.69 95.0481 151.256 94.1509C151.611 93.9423 151.298 93.3998 150.943 93.6084C149.126 94.6516 147.079 96.9467 147.831 99.2C147.956 99.5755 148.562 99.4086 148.436 99.0331Z" fill="#386190"/>
<path opacity="0.18" d="M153.907 44.8289C156.413 47.416 159.943 51.2758 163.724 56.3457C169.029 63.4186 171.66 66.9655 171.848 70.7001C172.183 77.6269 166.982 86.2854 160.131 89.5819C158.147 90.5416 152.988 92.482 150.022 96.2792C149.166 97.3641 148.289 98.8663 148.602 99.2001C148.874 99.4714 149.876 98.762 150.21 99.0958C150.607 99.4922 149.646 100.702 149.918 100.974C150.252 101.307 152.111 100.118 153.991 98.616C155.202 97.6353 156.685 96.3001 158.251 94.5475C160.236 93.4208 162.345 92.0021 164.496 90.2078C171.326 84.512 175.002 77.8564 176.965 73.3081C176.485 71.4721 175.754 68.9893 174.605 66.1309C171.138 57.5141 166.501 51.9435 164.977 50.1909C162.784 47.6455 159.484 44.3282 154.868 41.136C154.534 42.367 154.22 43.5979 153.907 44.8289Z" fill="#386190"/>
<path opacity="0.21" d="M173.937 76.354C171.932 78.9412 170.909 80.5894 170.073 81.8204C168.486 84.1154 166.126 86.3061 161.385 90.6875C159.693 92.2523 157.395 94.3387 154.576 96.738C151.61 99.3043 150.169 100.619 150.231 100.702C150.315 100.806 153.176 98.6366 158.837 94.1926C159.902 93.5667 161.406 92.6487 163.097 91.3552C172.83 83.9068 177.196 73.2036 176.799 72.9532C176.632 72.8698 175.733 74.0173 173.937 76.354Z" fill="#386190"/>
<path d="M120.823 6.60613C114.683 11.6343 114.933 21.8368 117.335 28.4297C118.86 32.6025 121.304 35.4609 122.912 37.0465C122.578 39.4667 122.243 41.8869 121.909 44.3071C123.685 45.1208 126.233 45.9763 129.345 46.1223C137.49 46.5187 143.318 41.7618 144.905 40.3847C143.464 35.5652 142.023 30.7456 140.581 25.9052C140.394 24.5491 140.08 22.4627 139.746 19.9173C138.848 13.2826 138.89 12.9279 138.493 11.843C138.326 11.4048 135.819 5.04134 129.992 3.91469C125.293 3.03841 121.408 6.12626 120.823 6.60613Z" fill="white" stroke="#6692BC" stroke-width="3"/>
<path d="M115.77 23.5893C115.415 24.9872 115.039 27.1779 115.289 29.8068C115.456 31.5593 115.749 34.6054 117.942 37.5473C120.302 40.7186 123.477 41.9287 124.834 42.3668C124.73 42.0121 124.605 41.574 124.542 41.0524C124.479 40.5099 124.5 40.0092 124.542 39.6336C125.983 40.4265 127.445 41.1984 128.886 41.9913C132.541 38.6322 133.753 35.5443 134.171 33.3119C134.505 31.5593 134.714 28.3463 135.486 22.4627C135.633 21.4195 135.904 19.5417 137.095 19.0619C137.659 18.8324 138.41 18.9367 138.891 19.354C140.332 20.5641 138.87 24.0692 139.183 24.1735C139.497 24.2778 142.024 20.7518 141.167 16.7251C140.729 14.6387 139.517 13.1991 138.807 12.4897C137.22 14.9934 135.465 17.5805 133.523 20.2302C132.291 21.9202 131.058 23.5059 129.847 25.0498C129.388 25.3002 128.698 25.5714 127.905 25.5088C127.278 25.4462 127.069 25.2376 126.61 25.1124C124.897 24.6325 123.978 26.6563 122.286 26.3851C120.908 26.1556 120.782 24.6742 119.258 24.6325C118.527 24.6117 118.234 24.9455 117.482 24.7994C116.689 24.5699 116.125 24.0275 115.77 23.5893Z" fill="#386190"/>
<path d="M122.87 17.6639C122.348 20.0841 122.013 22.5252 121.867 24.9871C121.846 25.2375 122.139 25.3627 122.348 25.2584C123.204 24.8202 124.081 24.3612 124.938 23.9231C125.293 23.7353 124.979 23.1928 124.624 23.3806C123.768 23.8188 122.891 24.2778 122.034 24.7159C122.201 24.7994 122.348 24.9037 122.515 24.9871C122.661 22.5669 122.974 20.1885 123.496 17.8308C123.559 17.4344 122.953 17.2675 122.87 17.6639Z" fill="#386190"/>
<ellipse cx="119.528" cy="18.9577" rx="0.480383" ry="1.2101" fill="#386190" stroke="#6692BC" stroke-width="3"/>
<ellipse cx="127.632" cy="18.9577" rx="0.647472" ry="1.2101" fill="#386190" stroke="#6692BC" stroke-width="3"/>
<path d="M118.358 16.6C118.755 15.8697 119.632 16.0366 120.28 16.2661C120.656 16.3913 120.823 15.7863 120.447 15.6611C119.528 15.3273 118.358 15.3064 117.815 16.287C117.627 16.6208 118.17 16.9546 118.358 16.6Z" fill="#386190"/>
<path d="M126.254 15.7446C127.235 14.8057 128.739 14.8891 129.575 16.0158C129.804 16.3288 130.347 16.0158 130.118 15.7028C129.053 14.2632 127.131 14.0755 125.815 15.3064C125.523 15.5777 125.961 16.0158 126.254 15.7446Z" fill="#386190"/>
<path d="M110.923 12.7609C119.716 13.2825 128.488 14.0127 137.219 14.9724C138.409 15.0976 138.409 13.2199 137.219 13.0947C128.468 12.135 119.695 11.4047 110.923 10.8831C109.712 10.8205 109.712 12.6983 110.923 12.7609Z" fill="#386190"/>
<path d="M116.604 11.4675C116.751 10.1114 117.294 6.62709 119.967 3.78961C123.455 0.0967023 129.909 -1.44722 134.922 1.68236C138.848 4.14429 140.958 8.90126 140.248 13.7417C132.374 12.9906 124.499 12.2395 116.604 11.4675Z" fill="#6692BC"/>
<path opacity="0.69" d="M127.716 0.722549C126.692 1.57797 126.692 3.39312 127.047 5.3126C127.444 7.41985 128.468 9.98611 129.992 12.6358C133.418 13.0322 136.843 13.4495 140.268 13.8459C140.415 13.0948 140.561 12.0099 140.436 10.7163C140.436 10.7163 140.206 8.33786 138.953 6.18888C136.446 1.89093 129.888 -1.11347 127.716 0.722549Z" fill="#6692BC"/>
<path opacity="0.24" d="M138.452 25.2168C137.679 25.6341 136.906 25.5298 136.635 25.4672C137.303 26.7399 139.371 31.0378 138.368 36.5876C137.407 41.8662 134.275 45.0583 133.188 46.0807C134.546 45.8094 136.092 45.3713 137.763 44.7037C140.937 43.4101 143.318 41.6993 144.927 40.3014C143.256 34.4386 141.585 28.5759 139.914 22.7131C139.914 22.8175 139.83 24.4866 138.452 25.2168Z" fill="#386190"/>
<path opacity="0.19" d="M130.723 14.2842C130.974 15.3482 131.182 16.9548 130.932 18.8325C130.493 22.0038 128.968 24.1945 128.175 25.2168C128.655 25.0708 129.136 24.9039 129.616 24.7578C130.577 23.5895 131.558 22.3376 132.519 21.0649C134.106 18.9577 135.569 16.8713 136.905 14.8684C134.838 14.6806 132.791 14.472 130.723 14.2842Z" fill="#386190"/>
</svg>
