<svg width="246" height="223" viewBox="0 0 246 223" fill="none" xmlns="http://www.w3.org/2000/svg">
<path d="M47.9279 185.282C65.2648 185.282 82.6017 185.282 99.9386 185.282C117.219 185.282 134.499 185.282 151.76 185.282C161.526 185.282 171.311 185.282 181.078 185.282C181.437 185.282 181.437 184.637 181.078 184.637C163.741 184.637 146.404 184.637 129.067 184.637C111.787 184.637 94.5067 184.637 77.2455 184.637C67.4792 184.637 57.6941 184.637 47.9279 184.637C47.5683 184.637 47.5683 185.282 47.9279 185.282Z" fill="#386190"/>
<path d="M184.579 171.907C184.428 178.1 184.977 184.293 186.226 190.336C186.302 190.744 186.85 190.572 186.775 190.164C185.545 184.185 184.996 178.057 185.166 171.907C185.147 171.498 184.579 171.498 184.579 171.907Z" fill="#386190"/>
<path d="M207.121 172.401C207.651 178.121 207.329 183.906 206.174 189.497C206.099 189.906 206.629 190.078 206.723 189.669C207.897 184.014 208.237 178.186 207.689 172.401C207.651 171.993 207.083 171.993 207.121 172.401Z" fill="#386190"/>
<path d="M186.453 190.938C193.001 192.83 199.929 192.572 206.345 190.164C206.685 190.035 206.534 189.411 206.193 189.54C199.853 191.905 193.058 192.185 186.604 190.314C186.244 190.228 186.093 190.852 186.453 190.938Z" fill="#386190"/>
<path d="M184.843 172.208C192.206 173.993 199.833 173.95 207.177 172.1C207.536 172.014 207.385 171.391 207.025 171.477C199.777 173.304 192.244 173.326 184.995 171.584C184.635 171.498 184.484 172.122 184.843 172.208Z" fill="#386190"/>
<path d="M189.33 172.444C188.346 169.928 189.235 166.853 189.974 164.38C190.731 161.821 191.809 159.391 193.134 157.155C192.983 157.177 192.832 157.198 192.68 157.22C193.115 157.779 193.589 158.166 194.175 158.488C194.402 158.596 194.648 158.424 194.592 158.123C194.365 156.962 193.967 155.822 194.421 154.661C194.743 153.843 195.197 153.026 195.576 152.252C195.443 152.295 195.311 152.338 195.178 152.36C195.576 152.639 195.973 152.897 196.371 153.177C196.636 153.37 196.863 153.005 196.768 152.725C196.371 151.736 196.106 150.747 196.655 149.758C196.976 149.156 197.393 148.618 197.752 148.059C198.547 146.855 199.38 145.65 200.213 144.468C201.803 142.21 203.449 140.016 205.153 137.866C205.001 137.845 204.85 137.823 204.699 137.802C207.121 141.414 208.654 145.736 209.071 150.252C209.279 152.424 209.222 154.661 208.881 156.811C208.711 157.908 208.465 158.983 208.162 160.037C208.105 160.252 208.03 160.467 207.973 160.66C207.765 161.262 207.424 161.52 206.875 161.649C206.497 161.735 206.288 161.671 205.967 161.95C205.815 162.079 205.777 162.294 205.91 162.467C206.326 162.961 206.497 163.047 206.345 163.714C206.251 164.144 206.023 164.595 205.853 165.025C205.512 165.886 205.134 166.724 204.736 167.541C203.923 169.219 202.995 170.81 201.954 172.315C201.727 172.638 202.125 173.089 202.352 172.767C204.358 169.842 205.948 166.638 207.14 163.198C207.178 163.09 207.14 162.961 207.064 162.875C206.818 162.596 206.572 162.294 206.307 162.015C206.288 162.187 206.27 162.359 206.251 162.531C206.686 162.187 207.178 162.424 207.632 162.208C207.992 162.058 208.181 161.757 208.333 161.37C208.749 160.359 209.014 159.198 209.241 158.123C209.714 155.757 209.866 153.327 209.714 150.919C209.392 146.059 207.822 141.35 205.21 137.479C205.115 137.328 204.907 137.242 204.755 137.414C202.655 140.059 200.629 142.79 198.699 145.586C197.828 146.833 196.901 148.08 196.144 149.435C195.462 150.661 195.784 151.822 196.257 153.069C196.39 152.919 196.522 152.768 196.655 152.618C196.257 152.338 195.86 152.08 195.462 151.801C195.33 151.715 195.141 151.758 195.065 151.908C194.592 152.897 193.854 153.994 193.589 155.091C193.361 156.058 193.835 157.327 194.024 158.273C194.156 158.144 194.308 158.037 194.44 157.908C193.891 157.628 193.456 157.263 193.059 156.746C192.926 156.574 192.699 156.639 192.604 156.811C191.128 159.305 189.974 162.036 189.179 164.918C188.497 167.412 187.835 170.251 188.8 172.745C188.989 173.132 189.481 172.81 189.33 172.444Z" fill="#386190"/>
<path d="M204.736 142.748C203.979 152.489 198.111 160.295 195.67 169.455C195.556 169.864 196.105 170.014 196.219 169.627C198.66 160.402 204.546 152.575 205.303 142.748C205.341 142.317 204.755 142.339 204.736 142.748Z" fill="#386190"/>
<path d="M197.581 147.93C198.187 151.478 198.887 154.983 199.682 158.467C199.777 158.875 200.326 158.703 200.231 158.295C199.436 154.811 198.736 151.285 198.13 147.758C198.073 147.349 197.524 147.521 197.581 147.93Z" fill="#386190"/>
<path d="M203.978 150.209C205.624 148.855 207.044 147.242 208.274 145.371C208.501 145.048 208.009 144.726 207.782 145.048C206.627 146.812 205.265 148.36 203.694 149.65C203.41 149.908 203.694 150.467 203.978 150.209Z" fill="#386190"/>
<path d="M202.219 141.006C202.73 142.855 203.032 145.113 204.282 146.511C204.547 146.812 204.944 146.339 204.679 146.059C203.524 144.747 203.222 142.532 202.748 140.834C202.654 140.447 202.105 140.619 202.219 141.006Z" fill="#386190"/>
<path d="M188.194 172.272C187.039 171.24 186.339 169.799 185.752 168.294C185.09 166.531 184.522 164.724 184.011 162.897C183.046 159.391 182.346 155.779 181.929 152.145C181.078 144.532 181.759 136.834 180.945 129.2C180.775 129.265 180.585 129.308 180.415 129.372C182.535 134.791 187.494 138.038 191.62 141.264C191.582 141.113 191.544 140.963 191.525 140.812C190.957 141.737 190.389 142.661 189.822 143.586C189.689 143.801 189.86 144.081 190.068 144.081C190.806 144.081 191.449 143.973 192.15 143.694C192.036 143.651 191.941 143.586 191.828 143.543C192.528 144.769 193.229 145.995 193.929 147.22C193.948 147.091 193.967 146.962 193.967 146.833C193.626 147.199 193.342 147.607 193.058 148.059C192.964 148.209 193.058 148.511 193.229 148.532C194.78 148.79 195.329 150.467 195.727 151.973C195.84 152.36 196.389 152.209 196.276 151.801C195.803 150.102 195.121 148.188 193.38 147.908C193.437 148.059 193.493 148.231 193.55 148.381C193.796 147.951 194.042 147.65 194.364 147.306C194.459 147.22 194.478 147.027 194.402 146.919C193.702 145.694 193.001 144.468 192.301 143.242C192.244 143.135 192.112 143.049 191.979 143.092C191.336 143.328 190.711 143.457 190.049 143.436C190.125 143.608 190.219 143.758 190.295 143.93C190.863 143.006 191.43 142.081 191.998 141.156C192.093 141.006 192.017 140.812 191.904 140.705C187.853 137.544 182.989 134.382 180.907 129.049C180.794 128.77 180.339 128.899 180.377 129.222C181.21 137.135 180.472 145.134 181.456 153.026C181.929 156.833 182.705 160.574 183.784 164.208C184.655 167.154 185.563 170.746 187.778 172.745C188.08 172.982 188.478 172.53 188.194 172.272Z" fill="#386190"/>
<path d="M180.529 129.845C182.062 134.662 183.349 139.737 185.412 144.317C186.434 146.575 187.551 148.79 188.516 151.091C189.557 153.585 190.485 156.123 191.431 158.639C191.564 159.026 192.056 158.682 191.923 158.316C191.034 155.908 190.125 153.499 189.16 151.134C188.214 148.812 187.116 146.597 186.056 144.339C183.936 139.737 182.63 134.576 181.059 129.695C180.946 129.286 180.397 129.458 180.529 129.845Z" fill="#386190"/>
<path d="M181.247 146.188C183.291 146.468 185.525 146.597 187.077 148.338C187.342 148.64 187.739 148.166 187.474 147.887C185.809 146.038 183.443 145.866 181.247 145.564C180.888 145.5 180.888 146.145 181.247 146.188Z" fill="#386190"/>
<path d="M186.718 137.479C186.377 138.877 186.15 140.318 186.055 141.78C185.979 143.027 185.847 144.489 186.226 145.694C186.339 146.081 186.888 145.909 186.774 145.521C186.415 144.382 186.547 142.963 186.623 141.758C186.718 140.361 186.945 138.984 187.267 137.63C187.361 137.242 186.812 137.07 186.718 137.479Z" fill="#386190"/>
<path d="M182.534 157.908C184.011 157.951 185.43 157.972 186.869 158.424C188.288 158.875 189.689 159.348 191.108 159.822C191.468 159.929 191.619 159.305 191.26 159.198C189.745 158.703 188.25 158.166 186.717 157.714C185.336 157.306 183.954 157.327 182.534 157.284C182.175 157.241 182.175 157.886 182.534 157.908Z" fill="#386190"/>
<path d="M203.24 171.67C204.509 171.477 205.758 171.477 207.026 171.67C206.969 171.52 206.912 171.348 206.856 171.197C206.742 171.391 205.606 171.412 205.379 171.434C204.868 171.52 204.338 171.606 203.827 171.735C203.752 171.756 203.24 171.821 203.222 171.885C203.259 171.778 204.016 171.799 204.13 171.799C204.679 171.799 205.228 171.864 205.777 171.907C205.777 171.692 205.777 171.477 205.777 171.262C205.304 171.24 204.887 171.305 204.414 171.455C204.111 171.541 204.168 172.079 204.49 172.079C205.228 172.079 205.89 171.907 206.609 171.692C206.969 171.584 206.818 170.961 206.458 171.068C205.815 171.262 205.171 171.434 204.49 171.434C204.509 171.649 204.546 171.864 204.565 172.057C204.963 171.928 205.36 171.885 205.777 171.885C206.136 171.885 206.136 171.262 205.777 171.24C204.944 171.197 203.733 170.853 202.976 171.391C202.673 171.606 202.237 172.165 202.635 172.509C202.805 172.659 202.994 172.573 203.203 172.552C203.77 172.423 204.319 172.272 204.887 172.165C205.55 172.036 206.874 172.229 207.329 171.52C207.423 171.369 207.329 171.068 207.158 171.047C205.833 170.832 204.546 170.832 203.222 171.025C202.881 171.068 202.881 171.713 203.24 171.67Z" fill="#386190"/>
<path d="M185.089 172.079C185.354 171.993 185.619 171.928 185.884 171.907C186.016 171.907 186.13 171.885 186.262 171.907C186.319 171.907 186.584 171.885 186.603 171.907C186.584 171.799 186.546 171.692 186.527 171.584C186.527 171.606 186.508 171.627 186.508 171.627C186.622 171.563 186.735 171.477 186.849 171.412C186.83 171.412 186.811 171.412 186.811 171.412C186.868 171.477 186.943 171.563 187 171.627C187 171.606 187 171.584 186.981 171.584C186.887 171.176 186.357 171.348 186.432 171.756C186.432 171.778 186.432 171.799 186.451 171.799C186.47 171.907 186.565 171.993 186.641 172.014C186.66 172.014 186.678 172.014 186.678 172.014C186.83 172.057 186.962 171.971 187.019 171.799C187.019 171.778 187.038 171.756 187.038 171.756C187.076 171.649 187.038 171.52 186.962 171.434C186.754 171.197 186.3 171.24 186.035 171.24C185.656 171.24 185.259 171.326 184.899 171.434C184.597 171.563 184.748 172.186 185.089 172.079Z" fill="#386190"/>
<path d="M185.525 176.401C192.433 177.756 199.606 178.401 206.42 176.079C206.761 175.95 206.628 175.347 206.269 175.455C199.569 177.734 192.49 177.111 185.676 175.777C185.317 175.713 185.165 176.337 185.525 176.401Z" fill="#386190"/>
<path d="M209.316 185.239C221.448 185.239 233.599 185.239 245.731 185.239C246.091 185.239 246.091 184.594 245.731 184.594C233.599 184.594 221.448 184.594 209.316 184.594C208.938 184.594 208.938 185.239 209.316 185.239Z" fill="#386190"/>
<path d="M200.137 199.066C211.569 199.066 223.019 199.066 234.451 199.066C234.811 199.066 234.811 198.421 234.451 198.421C223.019 198.421 211.569 198.421 200.137 198.421C199.777 198.421 199.777 199.066 200.137 199.066Z" fill="#386190"/>
<path d="M205.341 199.002C203.978 200.292 202.615 201.561 201.271 202.851C200.988 203.109 201.385 203.561 201.669 203.302C203.032 202.012 204.394 200.744 205.738 199.453C206.022 199.195 205.606 198.722 205.341 199.002Z" fill="#386190"/>
<path d="M201.442 203.539C201.801 203.539 201.801 202.894 201.442 202.894C201.082 202.894 201.082 203.539 201.442 203.539Z" fill="#386190"/>
<path d="M207.215 202.894C195.689 202.894 184.162 202.894 172.636 202.894C172.276 202.894 172.276 203.539 172.636 203.539C184.162 203.539 195.689 203.539 207.215 203.539C207.575 203.539 207.575 202.894 207.215 202.894Z" fill="#386190"/>
<path d="M172.579 209.56C174.623 207.625 176.724 205.775 178.882 203.991C179.166 203.754 178.901 203.195 178.598 203.431C176.402 205.238 174.264 207.13 172.182 209.087C171.898 209.366 172.295 209.818 172.579 209.56Z" fill="#386190"/>
<path d="M0.269706 197.819C13.632 197.819 26.9943 197.819 40.3566 197.819C44.1419 197.819 47.9273 197.819 51.7126 197.819C52.0722 197.819 52.0722 197.174 51.7126 197.174C38.3503 197.174 24.9881 197.174 11.6258 197.174C7.84041 197.174 4.05506 197.174 0.269706 197.174C-0.0899021 197.174 -0.0899021 197.819 0.269706 197.819Z" fill="#386190"/>
<path d="M7.25339 203.431C9.05143 201.69 10.8684 199.948 12.6664 198.206C12.9503 197.926 12.534 197.475 12.269 197.754C10.4709 199.496 8.65397 201.238 6.85593 202.98C6.57203 203.238 6.98842 203.711 7.25339 203.431Z" fill="#386190"/>
<path d="M0.742363 204.055C13.1583 204.055 25.5743 204.055 37.9902 204.055C38.3498 204.055 38.3498 203.41 37.9902 203.41C25.5743 203.41 13.1583 203.41 0.742363 203.41C0.382754 203.41 0.382754 204.055 0.742363 204.055Z" fill="#386190"/>
<path d="M33.6562 203.926C32.2367 205.732 30.7793 207.496 29.303 209.259C29.057 209.56 29.4544 210.012 29.7005 209.711C31.1768 207.947 32.6152 206.184 34.0536 204.378C34.3186 204.077 33.9022 203.625 33.6562 203.926Z" fill="#386190"/>
<path d="M23.967 210.291C34.8877 210.291 45.7895 210.291 56.7103 210.291C57.0699 210.291 57.0699 209.646 56.7103 209.646C45.7895 209.646 34.8877 209.646 23.967 209.646C23.6074 209.646 23.6074 210.291 23.967 210.291Z" fill="#386190"/>
<path d="M16.2248 187.002C20.8429 187.002 25.461 187.002 30.0981 187.002C30.4577 187.002 30.4577 186.357 30.0981 186.357C25.48 186.357 20.8618 186.357 16.2248 186.357C15.8652 186.357 15.8652 187.002 16.2248 187.002Z" fill="#386190"/>
<path d="M33.6003 189.11C35.0198 189.11 36.4582 189.11 37.8778 189.11C38.2374 189.11 38.2374 188.465 37.8778 188.465C36.4582 188.465 35.0198 188.465 33.6003 188.465C33.2218 188.465 33.2218 189.11 33.6003 189.11Z" fill="#386190"/>
<path d="M23.3223 74.1286C23.3223 77.6337 23.3223 81.1603 23.3223 84.6655C23.3223 85.0741 23.8901 85.0741 23.8901 84.6655C23.8901 81.1603 23.8901 77.6337 23.8901 74.1286C23.8901 73.72 23.3223 73.72 23.3223 74.1286Z" fill="#386190"/>
<path d="M13.8029 85.1816C21.4115 85.1816 29.02 85.1816 36.6286 85.1816C36.9882 85.1816 36.9882 84.5365 36.6286 84.5365C29.02 84.5365 21.4115 84.5365 13.8029 84.5365C13.4433 84.5365 13.4433 85.1816 13.8029 85.1816Z" fill="#386190"/>
<path d="M29.7383 85.4826C29.7383 88.1921 29.7383 90.8801 29.7383 93.5896C29.7383 93.9981 30.3061 93.9981 30.3061 93.5896C30.3061 90.8801 30.3061 88.1921 30.3061 85.4826C30.3061 85.0525 29.7383 85.0525 29.7383 85.4826Z" fill="#386190"/>
<path d="M23.4353 94.7077C29.4918 94.7077 35.5673 94.7077 41.6239 94.7077C41.9835 94.7077 41.9835 94.0626 41.6239 94.0626C35.5673 94.0626 29.4918 94.0626 23.4353 94.0626C23.0567 94.0626 23.0567 94.7077 23.4353 94.7077Z" fill="#386190"/>
<path d="M176.175 66.5807C176.175 67.4409 176.175 68.2795 176.175 69.1397C176.175 69.5483 176.743 69.5483 176.743 69.1397C176.743 68.2795 176.743 67.4409 176.743 66.5807C176.743 66.1721 176.175 66.1721 176.175 66.5807Z" fill="#386190"/>
<path d="M176.63 67.0968C189.652 67.0968 202.673 67.0968 215.695 67.0968C216.054 67.0968 216.054 66.4517 215.695 66.4517C202.673 66.4517 189.652 66.4517 176.63 66.4517C176.27 66.4517 176.27 67.0968 176.63 67.0968Z" fill="#386190"/>
<path d="M176.97 69.4621C189.878 69.4621 202.786 69.4621 215.675 69.4621C216.035 69.4621 216.035 68.817 215.675 68.817C202.767 68.817 189.859 68.817 176.97 68.817C176.61 68.817 176.61 69.4621 176.97 69.4621Z" fill="#386190"/>
<path d="M215.599 66.5807C215.523 67.4624 215.561 68.344 215.694 69.2257C215.751 69.6343 216.299 69.4622 216.243 69.0537C216.11 68.2365 216.091 67.3979 216.167 66.5807C216.205 66.1721 215.637 66.1721 215.599 66.5807Z" fill="#386190"/>
<path d="M179.298 66.6022C179.298 60.6026 179.298 54.603 179.298 48.6034C179.298 48.1949 178.73 48.1949 178.73 48.6034C178.73 54.603 178.73 60.6026 178.73 66.6022C178.73 67.0323 179.298 67.0323 179.298 66.6022Z" fill="#386190"/>
<path d="M179.299 48.7109C180.907 47.9797 182.611 48.0873 184.106 49.0979C184.428 49.313 184.712 48.7539 184.39 48.5388C182.781 47.4637 180.869 47.2916 179.147 48.0873C178.806 48.2378 178.958 48.8614 179.299 48.7109Z" fill="#386190"/>
<path d="M184.01 48.9474C184.01 54.7105 184.01 60.495 184.01 66.2581C184.01 66.6666 184.578 66.6666 184.578 66.2581C184.578 60.495 184.578 54.7105 184.578 48.9474C184.578 48.5388 184.01 48.5388 184.01 48.9474Z" fill="#386190"/>
<path d="M184.654 53.7644C185.809 53.2268 187.02 53.3128 188.099 54.0654C188.42 54.2805 188.704 53.7214 188.383 53.5063C187.19 52.6892 185.79 52.5387 184.503 53.1408C184.162 53.2913 184.313 53.9149 184.654 53.7644Z" fill="#386190"/>
<path d="M187.984 54.0439C187.984 58.0866 187.984 62.1078 187.984 66.1506C187.984 66.5591 188.552 66.5591 188.552 66.1506C188.552 62.1078 188.552 58.0866 188.552 54.0439C188.552 53.6353 187.984 53.6353 187.984 54.0439Z" fill="#386190"/>
<path d="M179.374 53.6568C180.982 53.2482 182.572 53.3772 184.124 54.0008C184.465 54.1298 184.616 53.5062 184.276 53.3772C182.629 52.7106 180.926 52.6246 179.222 53.0331C178.882 53.1192 179.033 53.7428 179.374 53.6568Z" fill="#386190"/>
<path d="M184.257 61.1186C185.468 60.753 186.68 60.71 187.91 61.0111C188.27 61.0971 188.421 60.4735 188.061 60.3875C186.736 60.0649 185.431 60.0864 184.106 60.495C183.765 60.6025 183.897 61.2261 184.257 61.1186Z" fill="#386190"/>
<path d="M195.14 66.3871C195.14 65.1829 195.14 63.9787 195.14 62.7744C195.14 62.3659 194.572 62.3659 194.572 62.7744C194.572 63.9787 194.572 65.1829 194.572 66.3871C194.572 66.7957 195.14 66.7957 195.14 66.3871Z" fill="#386190"/>
<path d="M194.856 62.968C201.007 62.968 207.14 62.968 213.291 62.968C213.65 62.968 213.65 62.3229 213.291 62.3229C207.14 62.3229 201.007 62.3229 194.856 62.3229C194.478 62.3229 194.478 62.968 194.856 62.968Z" fill="#386190"/>
<path d="M213.479 63.312C213.839 63.312 213.839 62.6669 213.479 62.6669C213.101 62.6669 213.101 63.312 213.479 63.312Z" fill="#386190"/>
<path d="M213.195 62.9895C213.195 64.0862 213.195 65.1829 213.195 66.2796C213.195 66.6882 213.763 66.6882 213.763 66.2796C213.763 65.1829 213.763 64.0862 213.763 62.9895C213.763 62.581 213.195 62.581 213.195 62.9895Z" fill="#386190"/>
<path d="M198.717 62.5379C198.717 61.3982 198.717 60.28 198.717 59.1403C198.717 58.7317 198.149 58.7317 198.149 59.1403C198.149 60.28 198.149 61.3982 198.149 62.5379C198.149 62.9465 198.717 62.9465 198.717 62.5379Z" fill="#386190"/>
<path d="M198.434 59.3553C204.471 59.3553 210.509 59.3553 216.566 59.3553C216.925 59.3553 216.925 58.7102 216.566 58.7102C210.528 58.7102 204.49 58.7102 198.434 58.7102C198.074 58.7102 198.074 59.3553 198.434 59.3553Z" fill="#386190"/>
<path d="M216.376 59.0328C216.376 59.9789 216.376 60.9251 216.376 61.8713C216.376 62.2799 216.944 62.2799 216.944 61.8713C216.944 60.9251 216.944 59.9789 216.944 59.0328C216.944 58.6027 216.376 58.6027 216.376 59.0328Z" fill="#386190"/>
<path d="M213.082 63.0755C214.18 63.0755 215.277 63.0755 216.375 63.0755C216.735 63.0755 216.735 62.4304 216.375 62.4304C215.277 62.4304 214.18 62.4304 213.082 62.4304C212.703 62.4304 212.703 63.0755 213.082 63.0755Z" fill="#386190"/>
<path d="M216.338 61.8927C216.3 62.1293 216.3 62.3443 216.357 62.5594C216.395 62.7314 216.565 62.8389 216.698 62.7744C216.849 62.7314 216.944 62.5379 216.887 62.3873C216.868 62.2798 216.849 62.1508 216.868 62.0648C216.887 61.8927 216.83 61.6992 216.679 61.6777C216.546 61.6347 216.357 61.7207 216.338 61.8927Z" fill="#386190"/>
<path d="M202.747 59.1833C202.993 60.28 203.05 61.3982 202.918 62.5379C202.88 62.9465 203.448 62.9465 203.485 62.5379C203.618 61.3552 203.542 60.1725 203.296 59.0113C203.201 58.6242 202.653 58.7962 202.747 59.1833Z" fill="#386190"/>
<path d="M207.025 62.9249C207.157 64.0001 207.082 65.0538 206.855 66.086C206.76 66.4946 207.309 66.6666 207.404 66.258C207.669 65.0968 207.725 63.9356 207.574 62.7529C207.536 62.3443 206.987 62.5164 207.025 62.9249Z" fill="#386190"/>
<path d="M203.316 89.0951C203.316 90.7939 203.316 92.4713 203.316 94.1701C203.316 94.5786 203.884 94.5786 203.884 94.1701C203.884 92.4713 203.884 90.7939 203.884 89.0951C203.884 88.6651 203.316 88.6651 203.316 89.0951Z" fill="#386190"/>
<path d="M198.925 94.2562C202.71 94.2562 206.496 94.2562 210.281 94.2562C210.641 94.2562 210.641 93.6111 210.281 93.6111C206.496 93.6111 202.71 93.6111 198.925 93.6111C198.565 93.6111 198.565 94.2562 198.925 94.2562Z" fill="#386190"/>
<path d="M192.471 21.9171C192.471 25.7878 192.471 29.6801 192.471 33.5508C192.471 33.9593 193.039 33.9593 193.039 33.5508C193.039 29.6801 193.039 25.7878 193.039 21.9171C193.039 21.5086 192.471 21.5086 192.471 21.9171Z" fill="#386190"/>
<path d="M193.19 21.8956C197.505 21.8956 201.801 21.8956 206.117 21.8956C206.476 21.8956 206.476 21.2505 206.117 21.2505C201.801 21.2505 197.505 21.2505 193.19 21.2505C192.83 21.2505 192.83 21.8956 193.19 21.8956Z" fill="#386190"/>
<path d="M206.137 21.8096C206.137 25.5513 206.137 29.293 206.137 33.0131C206.137 33.4217 206.705 33.4217 206.705 33.0131C206.705 29.2715 206.705 25.5298 206.705 21.8096C206.705 21.401 206.137 21.401 206.137 21.8096Z" fill="#386190"/>
<path d="M192.679 33.9162C197.259 33.9162 201.839 33.9162 206.42 33.9162C206.779 33.9162 206.779 33.2711 206.42 33.2711C201.839 33.2711 197.259 33.2711 192.679 33.2711C192.319 33.2711 192.319 33.9162 192.679 33.9162Z" fill="#386190"/>
<path d="M193.738 23.2502C193.738 26.1962 193.738 29.1207 193.738 32.0668C193.738 32.4753 194.306 32.4753 194.306 32.0668C194.306 29.1207 194.306 26.1962 194.306 23.2502C194.306 22.8416 193.738 22.8416 193.738 23.2502Z" fill="#386190"/>
<path d="M194.155 23.5084C197.695 23.5084 201.253 23.5084 204.792 23.5084C205.152 23.5084 205.152 22.8633 204.792 22.8633C201.253 22.8633 197.695 22.8633 194.155 22.8633C193.796 22.8633 193.796 23.5084 194.155 23.5084Z" fill="#386190"/>
<path d="M204.584 23.2502C204.584 25.9812 204.584 28.6906 204.584 31.4216C204.584 31.8302 205.152 31.8302 205.152 31.4216C205.152 28.6906 205.152 25.9812 205.152 23.2502C205.152 22.8416 204.584 22.8416 204.584 23.2502Z" fill="#386190"/>
<path d="M194.155 32.3894C197.676 32.3894 201.196 32.3894 204.736 32.3894C205.095 32.3894 205.095 31.7443 204.736 31.7443C201.215 31.7443 197.695 31.7443 194.155 31.7443C193.796 31.7443 193.796 32.3894 194.155 32.3894Z" fill="#386190"/>
<path d="M200.856 28.5187C199.361 27.2285 201.594 24.5405 202.635 26.1533C203.6 27.6155 202.029 29.3789 200.686 28.5617C200.364 28.3682 200.08 28.9273 200.402 29.1208C201.272 29.6584 202.427 29.5079 203.051 28.5832C203.695 27.6585 203.619 26.1963 202.805 25.4221C201.954 24.6265 200.742 25.1641 200.156 26.0673C199.531 27.0564 199.72 28.3467 200.572 29.0778C200.875 29.3143 201.14 28.7552 200.856 28.5187Z" fill="#386190"/>
<path d="M199.058 31.7013C198.982 30.0025 200.818 29.3574 201.973 29.3574C203.392 29.3574 203.846 30.7981 204.433 32.0239C204.603 32.3894 205.096 32.0669 204.925 31.7013C204.528 30.8842 204.149 29.809 203.487 29.2068C202.881 28.6693 202.124 28.6908 201.405 28.7768C200.08 28.9488 198.396 29.8735 198.49 31.7013C198.509 32.1099 199.077 32.1099 199.058 31.7013Z" fill="#386190"/>
<path d="M194.402 30.1531C194.818 29.2714 196.351 29.6155 196.919 29.9596C197.506 30.3251 197.846 30.9272 197.998 31.6584C198.073 32.067 198.622 31.8949 198.547 31.4863C198.319 30.3681 197.638 29.4865 196.654 29.1209C195.821 28.8199 194.402 28.7984 193.928 29.809C193.739 30.1961 194.231 30.5187 194.402 30.1531Z" fill="#386190"/>
<path d="M195.499 28.5618C194.875 28.5403 195.026 27.4866 195.291 27.121C195.632 26.6479 196.313 26.5834 196.711 27.035C197.032 27.379 197.127 28.0242 196.862 28.4327C196.673 28.7338 196.389 28.7983 196.086 28.7983C195.973 28.7983 195.499 28.8198 195.424 28.7123C195.215 28.3682 194.723 28.6908 194.932 29.0348C195.159 29.4219 195.632 29.4434 196.01 29.4434C196.465 29.4649 196.9 29.3359 197.222 28.9488C197.827 28.1962 197.619 26.9275 196.9 26.3684C196.124 25.7878 195.045 26.1103 194.648 27.0565C194.307 27.8951 194.553 29.1639 195.499 29.1854C195.878 29.2284 195.878 28.5833 195.499 28.5618Z" fill="#386190"/>
<path d="M79.6684 79.0744C80.558 79.8915 81.6557 79.5475 82.4885 78.7518C83.662 77.6551 84.2487 75.7843 84.4758 74.1285C85.0626 69.9137 83.5673 65.914 82.9806 61.8283C81.9207 54.2374 84.8354 46.1089 90.2485 41.5501C92.8793 39.3137 97.2135 36.9267 96.1915 32.3464C96.0969 31.9378 95.548 32.1099 95.6426 32.5184C96.6079 36.8837 92.1412 39.0986 89.6996 41.206C87.5041 43.1199 85.725 45.5928 84.4569 48.3668C83.2077 51.0548 82.4507 54.0438 82.2425 57.0759C81.9964 60.7531 82.8481 64.1722 83.5484 67.7203C83.9648 69.8707 84.2298 72.1286 83.8702 74.322C83.6998 75.3327 83.397 76.3219 82.9238 77.2035C82.3939 78.1497 81.1258 79.612 80.0659 78.6443C79.8009 78.3647 79.3845 78.8163 79.6684 79.0744Z" fill="#386190"/>
<path d="M95.9828 32.0884C93.844 32.1959 91.9703 30.3036 92.0838 27.8092C92.1974 25.2072 94.9039 22.7987 97.1941 23.4869C99.2382 24.1105 100.809 26.6694 100.298 29.0564C99.787 31.4433 97.4212 31.9594 95.6042 32.3035C95.2446 32.368 95.396 32.9916 95.7556 32.9271C98.1026 32.497 100.828 31.5508 100.979 28.3252C101.093 25.7018 99.03 22.8633 96.6641 22.7557C94.1658 22.6267 91.6485 24.9491 91.516 27.8307C91.4025 30.6692 93.5412 32.8626 95.9828 32.7551C96.3424 32.712 96.3424 32.0669 95.9828 32.0884Z" fill="#386190"/>
<path d="M93.1826 30.4111C94.0911 27.8091 98.9364 27.379 99.5042 30.4756C99.5799 30.8841 100.129 30.7121 100.053 30.3035C99.3528 26.5189 93.7315 27.078 92.6338 30.239C92.5013 30.6261 93.0501 30.7766 93.1826 30.4111Z" fill="#386190"/>
<path d="M96.021 27.5081C95.6236 27.1855 95.4722 26.5619 95.7371 26.0888C96.04 25.5082 96.6835 25.4437 97.1756 25.7448C97.5541 25.9813 97.6298 26.5189 97.4027 26.9275C97.1188 27.4221 96.5131 27.4866 96.04 27.3576C95.6804 27.2716 95.529 27.8952 95.8886 27.9812C96.6456 28.1747 97.5541 27.9812 97.9327 27.1425C98.2733 26.3899 98.0273 25.4867 97.3459 25.1212C96.5889 24.7341 95.6804 24.9061 95.2451 25.7448C94.8097 26.5404 95.0936 27.5296 95.7371 28.0457C96.04 28.3252 96.3239 27.7661 96.021 27.5081Z" fill="#386190"/>
<path d="M104.046 20.8848C106.033 14.9068 111.749 11.8532 117.068 11.4446C120.588 11.1651 124.108 11.7887 127.553 12.5413C130.808 13.2725 134.196 14.4337 137.527 14.3047C140.272 14.1971 143.092 12.9069 144.379 10.0039C144.549 9.63831 144.057 9.31575 143.887 9.68132C142.392 13.0359 138.947 13.8961 135.9 13.6165C132.342 13.294 128.84 12.0898 125.339 11.4231C119.661 10.3479 113.604 10.1974 108.551 13.8316C106.26 15.4874 104.444 17.8098 103.478 20.7128C103.365 21.0999 103.914 21.2719 104.046 20.8848Z" fill="#386190"/>
<path d="M146.67 9.6384C151.666 9.6384 156.682 9.6384 161.679 9.6384C162.038 9.6384 162.038 8.99329 161.679 8.99329C156.682 8.99329 151.666 8.99329 146.67 8.99329C146.291 8.99329 146.291 9.6384 146.67 9.6384Z" fill="#386190"/>
<path d="M146.46 8.95014C145.571 7.96096 146.536 6.28366 147.236 5.53102C148.088 4.58485 149.262 4.21928 150.397 4.73538C150.492 4.77838 150.681 4.71387 150.719 4.58485C151.4 2.77852 153.009 1.46678 154.769 1.5528C156.605 1.63881 158.157 3.2086 158.611 5.18696C158.649 5.38049 158.876 5.48801 159.028 5.38049C159.861 4.79989 160.712 5.48801 161.053 6.36967C161.356 7.18682 161.28 8.11149 161.204 8.99315C161.166 9.40172 161.734 9.40172 161.772 8.99315C161.886 7.70291 161.961 6.17614 161.053 5.18696C160.409 4.49883 159.52 4.28379 158.763 4.82139C158.895 4.8859 159.047 4.95041 159.179 5.01493C158.668 2.86454 157.04 1.14422 155.053 0.929186C153.009 0.692643 151.041 2.1334 150.246 4.26229C150.359 4.21928 150.454 4.15477 150.567 4.11176C149.053 3.42364 147.463 4.15477 146.479 5.57403C145.741 6.62772 145.098 8.32653 146.101 9.42323C146.328 9.70278 146.725 9.25119 146.46 8.95014Z" fill="#386190"/>
<path d="M157.23 12.1112C159.558 11.8102 160.92 14.5842 161.28 16.8206C161.659 19.1215 161.299 21.4224 161.091 23.7234C160.769 27.1855 160.977 31.3572 163.873 33.3786C164.176 33.5936 164.479 33.0345 164.157 32.8195C160.201 30.067 161.848 23.9384 161.999 19.7236C162.113 16.5195 160.996 10.993 157.23 11.4661C156.87 11.5091 156.87 12.1543 157.23 12.1112Z" fill="#386190"/>
<path d="M167.016 29.7445C165.313 34.6259 163.628 39.5073 161.925 44.3672C161.792 44.7542 162.341 44.9263 162.474 44.5392C164.177 39.6578 165.862 34.7764 167.565 29.9165C167.697 29.5295 167.149 29.3789 167.016 29.7445Z" fill="#386190"/>
<path d="M167.28 30.1531C170.233 29.981 173.166 30.067 176.1 30.4541C176.005 30.3251 175.911 30.1746 175.835 30.0455C174.434 35.142 173.299 40.3029 172.39 45.5283C172.315 45.9369 172.863 46.109 172.939 45.7004C173.848 40.4749 175.002 35.314 176.384 30.2176C176.441 30.0025 176.289 29.8305 176.119 29.809C173.185 29.4219 170.252 29.3359 167.299 29.5079C166.92 29.5295 166.92 30.1746 167.28 30.1531Z" fill="#386190"/>
<path d="M162.057 44.9908C163.798 45.0768 165.52 45.1843 167.262 45.3133C168.946 45.4209 170.744 45.3779 172.334 46.109C172.675 46.2595 172.826 45.6359 172.485 45.4854C170.971 44.7757 169.249 44.8188 167.64 44.7112C165.785 44.5822 163.931 44.4747 162.057 44.3672C161.697 44.3242 161.697 44.9693 162.057 44.9908Z" fill="#386190"/>
<path d="M167.546 32.3035C169.363 32.3465 171.18 32.497 172.978 32.7765C173.337 32.8411 173.489 32.2174 173.129 32.1529C171.274 31.8519 169.419 31.6798 167.546 31.6368C167.167 31.6368 167.167 32.282 167.546 32.3035Z" fill="#386190"/>
<path d="M166.996 33.7656C168.018 33.7226 169.04 33.7441 170.062 33.8517C170.422 33.8947 170.422 33.2495 170.062 33.2065C169.04 33.099 168.018 33.056 166.996 33.1205C166.637 33.142 166.637 33.7871 166.996 33.7656Z" fill="#386190"/>
<path d="M165.748 36.6687C167.924 36.5182 169.987 36.3032 172.126 36.9053C172.486 37.0128 172.637 36.3892 172.278 36.2817C170.082 35.6796 167.981 35.8731 165.748 36.0236C165.369 36.0451 165.369 36.6902 165.748 36.6687Z" fill="#386190"/>
<path d="M165.841 38.5611C167.09 38.4536 168.34 38.4536 169.589 38.5826C169.948 38.6257 169.948 37.9805 169.589 37.9375C168.34 37.8085 167.09 37.8085 165.841 37.916C165.482 37.959 165.463 38.6042 165.841 38.5611Z" fill="#386190"/>
<path d="M164.858 41.0555C166.561 40.9264 168.227 40.9909 169.911 41.249C170.271 41.3135 170.271 40.6684 169.911 40.6039C168.227 40.3458 166.542 40.2813 164.858 40.4103C164.498 40.4318 164.498 41.077 164.858 41.0555Z" fill="#386190"/>
<path d="M70.6792 12.1974C71.4363 13.3586 72.534 13.8317 73.6507 14.4123C74.9756 15.1004 76.1869 16.0251 77.1711 17.2508C79.4044 19.9818 80.1426 23.659 80.1994 27.2931C80.3319 34.1098 78.3067 41.2491 81.0321 47.7003C81.1836 48.0659 81.6757 47.7433 81.5242 47.3778C78.6663 40.5825 81.2025 32.9701 80.7104 25.8308C80.5022 22.7343 79.7262 19.7022 77.966 17.2938C77.1332 16.1541 76.1112 15.1649 74.9756 14.4338C73.7075 13.6166 72.0609 13.2511 71.1713 11.8748C70.9631 11.5523 70.471 11.8748 70.6792 12.1974Z" fill="#386190"/>
<path d="M64.2055 3.10113C63.7134 2.3915 63.7512 1.89691 64.319 1.61736C64.5651 1.46683 64.8111 1.35931 65.095 1.2948C65.4546 1.20878 65.8521 1.18728 66.2306 1.20878C67.3662 1.27329 68.5208 1.61736 68.464 3.18714C68.4072 5.03648 68.1044 6.86431 67.7069 8.64913C67.2905 10.477 66.7795 12.2618 66.2306 14.0466C66.1171 14.4337 66.0224 14.8853 65.8521 15.2508C65.5114 15.9174 64.9815 15.8959 64.4137 15.8959C63.7134 15.8959 62.8238 16.0035 62.1424 15.7884C61.3854 15.5519 61.215 14.6917 61.9532 14.1326C62.2939 13.8746 62.767 13.8316 63.1645 13.8316C63.6755 13.8316 64.1298 13.9606 64.5651 13.5735C65.3979 12.8424 65.5303 10.864 65.7196 9.81034C66.0035 8.28356 66.4767 6.41272 66.382 4.86444C66.3063 3.68173 65.2843 3.63872 64.5461 3.14413C64.2244 2.92909 63.9405 3.4882 64.2622 3.70323C64.849 4.0903 65.7007 4.13331 65.8142 5.01497C65.9467 6.04716 65.5682 7.44491 65.3979 8.4771C65.2275 9.46628 65.0382 10.4555 64.8111 11.4231C64.6408 12.1543 64.5651 13.0359 63.7134 13.2295C63.3727 13.3155 62.9563 13.1865 62.5967 13.251C61.6882 13.4015 60.7986 14.1326 60.9311 15.2938C61.1015 16.7561 62.6345 16.4981 63.5809 16.5411C64.7543 16.5841 65.9278 16.7776 66.4577 15.3583C67.1202 13.595 67.5934 11.6597 68.0476 9.83184C68.5208 7.9395 68.8804 5.98265 69.0129 4.02579C69.1264 2.49902 69.1832 1.27329 67.688 0.864721C66.382 0.499154 64.584 0.327123 63.562 1.53134C62.8806 2.32699 63.0509 3.89677 64.2244 3.78925C64.5651 3.70323 64.5651 3.05812 64.2055 3.10113Z" fill="#386190"/>
<path d="M61.9154 5.40206C61.8965 5.38055 61.8775 5.35905 61.8586 5.33755C61.7829 5.25153 61.6694 5.23003 61.5747 5.25153C61.0258 5.46657 60.8176 6.47725 60.6662 7.03635C60.4013 8.06854 60.3445 9.12223 60.477 10.1974C60.5148 10.606 61.0826 10.606 61.0448 10.1974C60.9691 9.44479 60.9501 8.71366 61.0637 7.96102C61.1205 7.57395 61.7072 6.06868 61.499 5.85364C61.764 6.15469 62.1614 5.70311 61.9154 5.40206Z" fill="#386190"/>
<path d="M60.0033 3.03663C58.262 5.55258 57.1453 8.58463 57.8835 11.8102C57.9781 12.2188 58.527 12.0468 58.4323 11.6382C57.751 8.67065 58.8109 5.81063 60.4007 3.48821C60.6278 3.16565 60.2304 2.71407 60.0033 3.03663Z" fill="#386190"/>
<path d="M57.619 0.133608C54.7232 4.45589 53.3605 9.91788 53.8526 15.3369C53.8904 15.7454 54.4582 15.7454 54.4204 15.3369C53.9472 10.0254 55.2532 4.71394 58.1111 0.456166C58.3193 0.133608 57.8272 -0.18895 57.619 0.133608Z" fill="#386190"/>
<path d="M53.5883 22.1105C52.1309 22.9062 50.7682 24.0029 49.6894 25.3791C48.5916 26.7984 48.2509 28.3252 48.0806 30.1745C47.702 34.4108 46.3204 39.0556 42.5729 40.8404C42.2322 40.991 42.3836 41.6146 42.7243 41.464C45.7147 40.0448 47.456 36.8192 48.1941 33.3356C48.6295 31.2497 48.4213 28.7767 49.3865 26.9059C50.3707 24.9921 52.1498 23.5943 53.8722 22.6481C54.2129 22.4976 53.9289 21.9385 53.5883 22.1105Z" fill="#386190"/>
<path d="M34.5659 52.2591C33.3167 52.3021 31.8972 51.7 31.443 50.2377C30.913 48.5174 32.0486 46.8401 33.26 45.9584C35.6069 44.2381 38.7676 43.5715 41.4931 43.5285C42.8748 43.507 44.4457 43.5285 45.657 44.3671C47.209 45.4423 47.474 47.4637 46.2626 48.9905C44.4267 51.3129 41.266 51.5494 38.7298 51.7645C38.3702 51.786 38.3702 52.4311 38.7298 52.4096C41.266 52.1945 44.105 51.9365 46.1491 50.0011C48.0228 48.2378 48.1553 45.3133 45.9598 43.7865C43.6886 42.2167 40.225 42.7328 37.7645 43.3349C35.3987 43.9155 32.1622 44.9692 31.1023 47.7432C30.0046 50.5818 32.1054 52.9472 34.6038 52.8612C34.9444 52.8827 34.9444 52.2376 34.5659 52.2591Z" fill="#386190"/>
<path d="M34.4705 52.5171C33.9973 53.3773 33.5431 54.2374 33.0699 55.0761C32.9185 55.3556 33.2213 55.6567 33.4674 55.5276C34.6219 54.818 35.8711 54.3664 37.0445 53.7428C37.6881 53.4203 38.3126 53.0332 38.9183 52.6031C39.1265 52.4526 39.3725 52.3666 39.4293 52.0655C39.4672 51.915 39.3915 51.7 39.2401 51.6784C39.2211 51.6784 39.2022 51.6784 39.1833 51.6569C39.0508 51.6354 38.8615 51.7 38.8426 51.872C38.8426 51.8935 38.8426 51.8935 38.8426 51.915C38.7669 52.3236 39.3158 52.4956 39.3915 52.087C39.3915 52.0655 39.3915 52.0655 39.3915 52.044C39.2779 52.1085 39.1643 52.1945 39.0508 52.2591C39.0697 52.2591 39.0886 52.2591 39.1076 52.2806C39.0508 52.1515 38.9751 52.0225 38.9183 51.8935C38.8615 52.1085 37.8016 52.6031 37.5745 52.7536C37.0067 53.0977 36.42 53.3773 35.8143 53.6568C34.9248 54.0654 34.0541 54.4525 33.2213 54.9685C33.3538 55.1191 33.4863 55.2696 33.6188 55.4201C34.092 54.56 34.5462 53.6998 35.0194 52.8612C35.1519 52.4956 34.6598 52.173 34.4705 52.5171Z" fill="#386190"/>
<path d="M35.0967 48.7969C35.0778 48.7539 35.0778 48.6679 35.1346 48.6679C35.286 48.6679 35.1156 48.8829 35.0967 48.9044C35.0021 48.9689 34.6803 49.0549 34.6992 48.8399C34.7182 48.5818 35.1535 48.3023 35.2292 48.6894C35.2481 48.7969 35.1724 48.9259 35.0778 48.9474C35.021 48.9689 34.9831 48.9689 34.9453 48.9259C34.9264 48.9044 34.8885 48.8829 34.9264 48.8829C35.286 48.9044 35.286 48.2593 34.9264 48.2378C34.5478 48.1948 34.2639 48.6463 34.3586 49.0549C34.4532 49.4635 34.8696 49.6785 35.2103 49.571C35.551 49.4635 35.8159 49.1194 35.8159 48.7109C35.8159 48.3023 35.532 47.9582 35.2103 47.8722C34.51 47.6787 33.7718 48.8399 34.3775 49.4205C34.8696 49.8936 35.8538 49.4635 35.797 48.6679C35.7591 48.2378 35.3428 47.8937 34.9642 48.0442C34.5857 48.1948 34.4343 48.7324 34.6235 49.1194C34.775 49.485 35.2671 49.1624 35.0967 48.7969Z" fill="#386190"/>
<path d="M39.2781 48.2163C39.2592 48.0873 39.2024 47.9152 39.316 47.8077C39.3728 47.7432 39.4674 47.7432 39.5431 47.7432C39.7324 47.7862 39.6945 48.0227 39.562 48.1303C39.4863 48.1948 39.4106 48.1948 39.3538 48.1088C39.2971 48.0227 39.316 48.0012 39.3728 47.9582C39.4106 47.9367 39.2971 47.9582 39.3917 47.9367C39.6188 47.8937 39.2403 48.1948 39.2971 47.9797C39.1835 48.3883 39.7324 48.5388 39.8459 48.1518C39.9406 47.7647 39.6188 47.3776 39.2781 47.4421C38.8807 47.5282 38.786 48.0657 39.0321 48.3883C39.2592 48.6894 39.6756 48.6248 39.8459 48.2808C40.0163 47.9367 39.9027 47.4851 39.562 47.3561C39.2214 47.2271 38.8428 47.4636 38.7671 47.8507C38.6725 48.2808 38.9375 48.7109 39.316 48.8184C39.9974 48.9904 40.5652 47.9367 40.0731 47.3561C39.827 47.0766 39.4296 47.0551 39.1267 47.2056C38.7103 47.4421 38.6914 47.9367 38.7671 48.3883C38.786 48.7969 39.3349 48.6248 39.2781 48.2163Z" fill="#386190"/>
<path d="M43.4802 46.7755C43.5559 46.7755 43.6316 46.797 43.7262 46.797V46.7755C43.7452 46.754 43.7452 46.711 43.7641 46.6895C43.783 46.6465 43.8398 46.6035 43.8777 46.582C43.9723 46.539 44.0669 46.539 44.1237 46.6465C44.1994 46.8186 44.0669 47.1411 43.8777 47.0121C43.7641 46.9261 43.7452 46.711 43.9155 46.754C43.9534 46.754 43.9723 46.7755 43.9912 46.797C43.9912 46.797 43.9912 46.8401 43.9912 46.797C43.9912 46.754 43.9912 46.8186 43.9723 46.8186C43.9155 46.8616 43.8966 46.9046 43.8398 46.8616C43.7073 46.754 43.518 46.8401 43.4423 46.9691C43.3666 47.1411 43.4234 47.3131 43.537 47.4207C44.0859 47.8722 44.824 46.9691 44.3887 46.367C43.9912 45.8294 43.1395 46.1734 43.1774 46.8831C43.1963 47.2486 43.4423 47.5712 43.7452 47.6572C44.048 47.7432 44.3698 47.5712 44.5401 47.2701C44.9186 46.6035 44.3887 45.6788 43.6884 45.9369C43.3666 46.0659 43.0827 46.4315 43.1206 46.8401C43.1584 47.2916 43.7262 47.5282 43.9344 47.0766C44.1237 46.7325 43.6505 46.41 43.4802 46.7755Z" fill="#386190"/>
<path d="M54.9127 28.0241C57.2407 26.5618 59.2659 24.6264 60.9504 22.2825C61.1775 21.96 60.78 21.5084 60.5529 21.8309C58.9063 24.1319 56.919 26.0242 54.6288 27.465C54.3071 27.6585 54.591 28.2176 54.9127 28.0241Z" fill="#386190"/>
<path d="M83.2263 28.5832C82.8099 31.2927 82.6396 34.0237 82.7531 36.7762C82.7721 37.1848 83.3399 37.1848 83.3209 36.7762C83.2074 34.0882 83.3588 31.4002 83.7752 28.7553C83.832 28.3467 83.2831 28.1747 83.2263 28.5832Z" fill="#386190"/>
<path d="M80.3316 91.4392C80.3316 88.1491 81.6943 85.031 84.0223 83.0527C84.3062 82.8161 84.0223 82.257 83.7384 82.4936C81.24 84.6009 79.7827 87.891 79.7827 91.4392C79.7638 91.8477 80.3316 91.8477 80.3316 91.4392Z" fill="#386190"/>
<path d="M112.032 178.272C112.334 181.368 112.808 184.766 113.565 188.443C114.587 193.411 115.893 197.754 117.199 201.41C116.839 201.776 115.76 202.743 114.17 202.872C113.167 202.958 112.372 202.679 111.918 202.485C111.237 199.797 110.574 197.002 109.969 194.099C108.719 188.121 107.811 182.422 107.148 177.111C108.795 177.498 110.423 177.885 112.032 178.272Z" fill="#386190"/>
<path d="M154.523 176.251C154.277 179.326 153.86 182.745 153.16 186.422C152.176 191.626 150.87 196.142 149.545 199.948C149.734 200.141 150.813 201.303 152.479 201.217C153.917 201.152 154.844 200.184 155.072 199.948C155.507 197.346 155.923 194.722 156.34 192.099C157.248 186.357 158.062 180.702 158.838 175.111C157.4 175.476 155.961 175.863 154.523 176.251Z" fill="#386190"/>
<path d="M120.682 167.67C121.117 170.96 121.628 174.358 122.215 177.842C123.066 182.895 124.032 187.712 125.054 192.271C124.618 192.572 123.748 193.066 122.555 193.152C121.552 193.217 120.757 192.959 120.303 192.765C119.735 189.712 119.186 186.615 118.637 183.519C117.634 177.777 116.707 172.122 115.817 166.531C117.445 166.896 119.054 167.283 120.682 167.67Z" fill="#386190"/>
<path d="M147.387 167.025C146.876 170.273 146.422 173.67 146.025 177.197C145.476 182.057 145.097 186.702 144.87 191.131C145.192 191.368 145.949 191.862 147.028 191.927C148.182 191.97 149.034 191.454 149.356 191.239C149.166 188.701 149.091 185.884 149.204 182.874C149.431 176.186 150.51 170.423 151.703 165.886C150.264 166.251 148.826 166.638 147.387 167.025Z" fill="#386190"/>
<path d="M181.021 95.0733C184.333 101.783 181.778 109.201 175.57 127.63C172.579 136.49 167.11 152.768 159.387 175.971C151.798 179.111 139.23 182.981 123.692 181.756C114.664 181.046 107.093 178.831 101.358 176.552C100.506 174.81 97.5537 168.294 99.7681 161.972C100.998 158.467 103.478 155.951 108.739 152.983C113.925 150.059 123.067 145.952 136.354 145.199C131.149 115.76 140.063 91.6327 153.937 86.0632C163.04 82.429 176.459 85.8481 181.021 95.0733Z" fill="white" stroke="#386190" stroke-width="2"/>
<path d="M179.809 97.5032C174.32 105.395 173.071 115.997 170.97 125.48C168.718 135.63 166.125 145.758 162.245 155.284C160.106 160.51 157.589 165.542 154.58 170.186C154.371 170.53 154.864 170.853 155.072 170.509C160.352 162.337 164.081 153.069 166.958 143.522C169.872 133.802 171.803 123.781 174.074 113.868C175.361 108.234 177.008 102.6 180.225 97.9763C180.434 97.6323 180.036 97.1807 179.809 97.5032Z" fill="#386190"/>
<path d="M101.471 171.885C114.095 177.154 127.855 178.702 141.142 176.358C144.946 175.691 148.713 174.702 152.403 173.412C152.744 173.283 152.611 172.659 152.252 172.788C139.382 177.304 125.565 177.992 112.392 174.81C108.739 173.928 105.124 172.724 101.623 171.262C101.282 171.111 101.131 171.735 101.471 171.885Z" fill="#386190"/>
<path d="M145.911 154.983C149.09 156.166 151.797 158.553 153.614 161.778C153.803 162.122 154.295 161.8 154.106 161.456C152.213 158.101 149.393 155.607 146.062 154.36C145.703 154.23 145.551 154.854 145.911 154.983Z" fill="#386190"/>
<path d="M88.9792 182.831C90.4934 185.411 92.0075 188.013 93.5027 190.594C83.8122 200.485 82.5631 203.302 83.2823 203.991C84.7207 205.345 95.0358 199.324 96.0957 198.701C99.9378 196.464 102.834 194.292 104.764 192.744C104.083 190.637 103.174 188.271 101.925 185.777C100.279 182.487 98.4615 179.713 96.7392 177.455C94.1462 179.218 91.5533 181.024 88.9792 182.831Z" fill="#386190"/>
<path d="M145.609 132.146C146.29 133.823 147.009 136.21 147.123 139.092C147.293 143.436 146.044 146.898 145.098 148.898C144.586 149.65 143.678 150.897 142.334 152.252C142.334 152.252 139.287 155.306 134.442 157.65C129.502 160.058 115.136 162.961 95.623 163.52C96.1908 166.273 97.2128 169.649 99.0298 173.283C100.033 175.283 101.131 177.046 102.209 178.573C101.49 179.648 99.4462 182.379 95.3769 184.099C91.4591 185.755 87.863 185.562 86.4435 185.433C84.3994 183.304 82.2985 180.766 80.3491 177.734C74.6143 168.767 73.2705 160.101 73.0244 154.532C74.4439 153.37 76.5259 151.779 79.2513 150.08C84.9293 146.532 90.1342 144.597 94.4116 143.156C101.774 140.705 108.815 139.006 125.016 135.888C130.089 134.92 137.11 133.587 145.609 132.146Z" fill="white" stroke="#386190" stroke-width="2"/>
<path opacity="0.19" d="M127.628 135.845C127.079 139.952 125.527 145.285 120.72 148.596C116.045 151.822 112.127 150.51 102.758 153.091C96.0205 154.94 87.106 157.391 84.6266 162.832C82.0337 168.552 86.9357 176.616 95.5095 183.239C96.2287 183.132 97.1372 182.917 98.1025 182.487C100.582 181.368 101.793 179.541 102.247 178.745C101.15 177.24 100.014 175.498 98.9731 173.498C97.0047 169.756 95.9448 166.273 95.3392 163.456C105.37 162.983 113.793 161.993 120.19 161.047C127.893 159.907 133.231 158.768 138.322 155.499C142.58 152.768 144.284 150.08 144.889 149.048C146.725 145.887 146.877 143.005 146.952 141.393C147.142 137.457 146.006 134.253 145.06 132.232C139.249 133.436 133.439 134.64 127.628 135.845Z" fill="#DAEEF9"/>
<path opacity="0.19" d="M145.248 132.684C144.87 136.683 143.526 143.005 138.17 147.994C134.877 151.069 131.337 152.446 117.445 156.703C111.313 158.574 103.893 160.789 95.4521 163.198C106.184 163.069 114.909 162.058 121.174 161.09C127.665 160.08 130.845 159.198 134.138 157.585C137.261 156.058 143.564 152.962 146.138 146.446C148.617 140.124 146.119 134.447 145.248 132.684Z" fill="#DAEEF9"/>
<path opacity="0.22" d="M95.5088 163.52C95.4331 166.359 95.5467 169.606 96.0198 173.175C96.4741 176.702 97.2122 179.863 98.0071 182.616C98.6507 182.186 99.3888 181.605 100.108 180.895C100.979 180.035 101.622 179.218 102.095 178.508C100.998 176.874 99.8809 174.982 98.8399 172.853C97.1554 169.412 96.1523 166.23 95.5088 163.52Z" fill="#DAEEF9"/>
<path d="M94.639 195.174C96.0964 198.421 97.5348 201.668 98.9921 204.937C89.6802 217.366 88.4689 220.893 89.1692 221.753C90.5508 223.473 100.468 215.882 101.49 215.108C105.181 212.291 107.982 209.56 109.837 207.625C109.175 204.98 108.304 202.012 107.093 198.851C105.522 194.722 103.762 191.239 102.115 188.379C99.6167 190.658 97.1184 192.916 94.639 195.174Z" fill="#386190"/>
<path d="M149.072 131.479C149.734 133.608 150.416 136.576 150.529 140.21C150.7 145.672 149.488 150.016 148.58 152.532C148.088 153.478 147.217 155.048 145.93 156.768C145.93 156.768 143.015 160.617 138.359 163.563C133.609 166.574 119.792 170.251 101.055 170.939C101.604 174.401 102.569 178.638 104.329 183.196C105.294 185.712 106.354 187.927 107.395 189.841C106.714 191.196 104.745 194.615 100.828 196.787C97.0612 198.873 93.6165 198.636 92.2348 198.443C90.2664 195.776 88.2413 192.572 86.3865 188.766C80.8598 177.498 79.5728 166.595 79.3457 159.607C80.7084 158.166 82.7147 156.144 85.3266 154.016C90.7964 149.564 95.7741 147.113 99.9002 145.306C106.96 142.231 113.755 140.103 129.331 136.167C134.139 134.942 140.914 133.286 149.072 131.479Z" fill="white" stroke="#386190" stroke-width="2"/>
<path opacity="0.19" d="M131.791 136.124C131.261 141.285 129.766 147.973 125.148 152.145C120.662 156.209 116.877 154.553 107.886 157.8C101.414 160.123 92.8397 163.219 90.4549 170.057C87.9566 177.24 92.6693 187.39 100.902 195.69C101.603 195.561 102.473 195.282 103.401 194.744C105.786 193.346 106.94 191.045 107.375 190.035C106.316 188.142 105.218 185.949 104.215 183.433C102.322 178.724 101.3 174.358 100.732 170.81C110.385 170.208 118.467 168.982 124.637 167.8C132.056 166.38 137.166 164.94 142.068 160.832C146.156 157.392 147.803 154.016 148.371 152.725C150.131 148.747 150.282 145.134 150.358 143.113C150.528 138.167 149.45 134.146 148.541 131.609C142.958 133.092 137.374 134.598 131.791 136.124Z" fill="#DAEEF9"/>
<path opacity="0.19" d="M148.712 132.146C148.352 137.157 147.065 145.113 141.917 151.392C138.738 155.263 135.35 156.983 122.006 162.338C116.101 164.703 108.985 167.477 100.865 170.509C111.18 170.337 119.584 169.09 125.603 167.864C131.848 166.595 134.914 165.499 138.056 163.477C141.066 161.542 147.103 157.671 149.602 149.457C151.967 141.5 149.564 134.383 148.712 132.146Z" fill="#DAEEF9"/>
<path opacity="0.22" d="M100.922 170.918C100.846 174.487 100.96 178.573 101.414 183.046C101.868 187.497 102.55 191.454 103.326 194.895C103.95 194.335 104.651 193.626 105.351 192.723C106.184 191.647 106.808 190.615 107.262 189.734C106.203 187.669 105.124 185.304 104.14 182.616C102.512 178.315 101.528 174.294 100.922 170.918Z" fill="#DAEEF9"/>
<path d="M93.5603 98.0623C93.2007 97.8688 92.4814 97.5032 92.5004 97.0946C92.5382 96.428 94.4877 95.9764 95.945 95.9979C96.9292 95.9979 98.7462 96.2345 100.866 97.9118C98.8787 98.6214 95.945 99.2665 93.5603 98.0623Z" fill="white" stroke="#386190" stroke-width="2"/>
<path d="M139.079 70.1718C135.483 69.6342 132.247 75.7628 131.944 76.3219C130.846 78.4508 130.714 79.8701 129.957 83.7623C128.121 93.2455 127.137 98.0623 124.411 100.965C121.951 103.567 119.074 104.191 118.317 104.32C115.08 104.901 112.147 103.524 106.431 100.75C101.604 98.4064 101.018 97.5463 98.3868 97.2022C97.043 97.0302 93.1252 96.5356 90.5322 99.3956C88.8667 101.223 88.1285 104.148 88.7342 104.75C89.5102 105.524 92.6899 102.793 92.7277 102.858C92.7466 102.901 91.7814 103.417 90.9865 104.535C90.589 105.073 89.9076 106.234 90.1537 106.535C90.589 107.137 93.2577 103.481 96.1913 104.126C98.1976 104.557 98.5761 106.621 100.904 107.008C102.267 107.245 103.459 106.771 104.216 106.363C105.541 107.997 107.699 110.32 110.822 112.212C112.677 113.33 119.225 117.179 127.231 114.943C135.729 112.577 140.007 105.03 141.351 102.664C142.108 101.309 147.672 91.2026 144.985 79.8701C144.511 78.0422 142.789 70.7309 139.079 70.1718Z" fill="white" stroke="#386190" stroke-width="2"/>
<path opacity="0.25" d="M138.701 70.2362C137.471 70.9673 139.855 76.0423 139.552 83.3106C139.269 90.2993 136.638 95.4603 135.464 97.8257C133.874 100.987 131.774 105.116 127.591 107.804C121.97 111.416 115.004 110.879 110.046 108.427C108.569 107.696 107.074 105.331 103.819 103.89C102.399 103.266 101.283 103.008 99.9766 102.707C96.778 101.997 93.939 101.352 91.3082 102.858C90.059 103.589 89.018 104.707 89.0937 104.857C89.1694 105.008 90.6268 104.169 91.9138 103.374C90.3618 105.718 90.1158 106.384 90.2293 106.513C90.3618 106.642 90.835 106.148 92.0463 105.374C93.3523 104.556 94.2986 103.976 95.4531 104.083C96.0398 104.148 96.4941 104.363 96.7591 104.492C97.8 105.008 98.0461 105.61 99.0871 106.212C99.7306 106.578 100.261 106.728 100.544 106.793C101.15 106.943 102.399 107.137 104.046 106.47C105.484 108.191 112.09 115.803 121.761 115.652C126.739 115.566 130.392 113.459 131.83 112.62C139.723 107.954 142.865 99.675 143.66 97.3956C146.12 90.3423 146.991 79.8914 142.486 73.3328C141.407 71.7415 139.552 69.7416 138.701 70.2362Z" fill="#DAEEF9"/>
<path d="M89.0756 104.75C89.8138 103.503 90.779 102.514 91.9336 101.804C92.1796 101.653 91.9525 101.245 91.7254 101.395C90.5141 102.148 89.492 103.202 88.716 104.513C88.5457 104.771 88.9242 105.008 89.0756 104.75Z" fill="#386190"/>
<path d="M89.3028 101.976C90.041 100.664 91.2333 99.9761 92.4257 99.3095C92.6718 99.1805 92.4636 98.7504 92.2175 98.9009C90.9494 99.5891 89.7003 100.342 88.9243 101.739C88.7918 101.997 89.1514 102.234 89.3028 101.976Z" fill="#386190"/>
<path opacity="0.29" d="M144.133 77.9777C143.849 80.1496 143.338 83.2891 142.43 86.9878C140.651 94.2991 139.042 100.879 134.84 106.105C129.635 112.556 122.576 114.319 118.525 114.857C121.535 115.652 123.901 115.502 125.396 115.265C136.752 113.459 142.884 99.5891 144.55 93.525C144.834 92.4498 145.439 90.2349 145.515 87.2028C145.647 83.1601 144.777 79.913 144.133 77.9777Z" fill="#DAEEF9"/>
<path opacity="0.26" d="M96.5703 103.868C97.6491 104.47 99.1254 105.137 100.942 105.524C102.381 105.825 103.668 105.89 104.69 105.847C102.097 107.416 100.753 107.223 99.9961 106.707C99.5229 106.384 98.9929 105.739 97.5356 104.599C97.1381 104.277 96.7974 104.019 96.5703 103.868Z" fill="#DAEEF9"/>
<path d="M58.2998 139.221C58.2998 149.543 58.2998 159.886 58.2998 170.208C58.2998 171.455 60.0032 171.455 60.0032 170.208C60.0032 159.886 60.0032 149.543 60.0032 139.221C60.0032 137.995 58.2998 137.974 58.2998 139.221Z" fill="#1C3867"/>
<path d="M89.2627 138.812C89.2627 140.468 89.2627 142.124 89.2627 143.78C89.2627 145.027 90.9661 145.027 90.9661 143.78C90.9661 142.124 90.9661 140.468 90.9661 138.812C90.9661 137.565 89.2627 137.565 89.2627 138.812Z" fill="#1C3867"/>
<path d="M34.791 137.952C43.9705 128.125 53.15 118.276 62.3484 108.449C77.2059 108.75 92.0445 109.051 106.902 109.352C104.479 118.9 102.057 128.426 99.6341 137.974C78.0197 137.952 56.4054 137.952 34.791 137.952Z" fill="white" stroke="#386190" stroke-width="2"/>
<path d="M35.3409 139.07C51.9397 139.07 68.5195 139.07 85.1183 139.07C89.7743 139.07 94.4113 139.07 99.0673 139.07C100.165 139.07 100.165 137.135 99.0673 137.135C82.4685 137.135 65.8887 137.135 49.2899 137.135C44.6339 137.135 39.9969 137.135 35.3409 137.135C34.2431 137.135 34.2431 139.07 35.3409 139.07Z" fill="#1C3867"/>
<path d="M40.2051 138.748C40.2051 160.144 40.2051 181.54 40.2051 202.915C40.2051 208.915 40.2051 214.893 40.2051 220.893C40.2051 222.14 41.9085 222.14 41.9085 220.893C41.9085 199.496 41.9085 178.1 41.9085 156.725C41.9085 150.725 41.9085 144.747 41.9085 138.748C41.9085 137.5 40.2051 137.5 40.2051 138.748Z" fill="#1C3867"/>
<path d="M92.1211 138.748C92.1211 160.144 92.1211 181.54 92.1211 202.915C92.1211 208.915 92.1211 214.893 92.1211 220.893C92.1211 222.14 93.8245 222.14 93.8245 220.893C93.8245 199.496 93.8245 178.1 93.8245 156.725C93.8245 150.725 93.8245 144.747 93.8245 138.748C93.8245 137.5 92.1211 137.5 92.1211 138.748Z" fill="#1C3867"/>
<path d="M41.0567 178.68C54.419 178.68 67.7813 178.68 81.1436 178.68C84.9289 178.68 88.7143 178.68 92.4996 178.68C93.5974 178.68 93.5974 176.745 92.4996 176.745C79.1374 176.745 65.7751 176.745 52.4128 176.745C48.6274 176.745 44.8421 176.745 41.0567 176.745C39.959 176.745 39.959 178.68 41.0567 178.68Z" fill="#1C3867"/>
<path d="M106.676 109.352C104.518 118.921 102.039 128.404 99.1998 137.737C98.9537 138.533 100.051 138.855 100.298 138.081C103.137 128.727 105.616 119.265 107.774 109.696C107.944 108.9 106.865 108.556 106.676 109.352Z" fill="#1C3867"/>
<path d="M16.0528 223C26.1029 223 36.1341 223 46.1842 223C47.282 223 47.282 221.065 46.1842 221.065C36.1341 221.065 26.1029 221.065 16.0528 221.065C14.9551 221.065 14.9551 223 16.0528 223Z" fill="#1C3867"/>
<path d="M50.4053 222.57C52.7144 222.57 55.0424 222.57 57.3515 222.57C58.4492 222.57 58.4492 220.635 57.3515 220.635C55.0424 220.635 52.7144 220.635 50.4053 220.635C49.3076 220.635 49.3076 222.57 50.4053 222.57Z" fill="#1C3867"/>
<path d="M80.5372 222.849C89.5842 222.849 98.6312 222.849 107.697 222.849C108.795 222.849 108.795 220.914 107.697 220.914C98.6501 220.914 89.6031 220.914 80.5372 220.914C79.4394 220.914 79.4394 222.849 80.5372 222.849Z" fill="#1C3867"/>
<path d="M113.885 222.161C115.494 222.161 117.102 222.161 118.73 222.161C119.828 222.161 119.828 220.226 118.73 220.226C117.121 220.226 115.513 220.226 113.885 220.226C112.787 220.226 112.787 222.161 113.885 222.161Z" fill="#1C3867"/>
<path d="M6.93074 216.183C10.8486 216.183 14.7664 216.183 18.6653 216.183C19.7631 216.183 19.7631 214.248 18.6653 214.248C14.7475 214.248 10.8296 214.248 6.93074 214.248C5.83298 214.248 5.83298 216.183 6.93074 216.183Z" fill="#1C3867"/>
<path d="M89.7184 133.888C78.0406 133.544 66.3438 133.221 54.666 132.877C61.5932 125.351 68.5015 117.803 75.4287 110.277C83.4158 110.75 91.4218 111.223 99.4089 111.696C96.1724 119.115 92.9548 126.491 89.7184 133.888Z" fill="white" stroke="#386190" stroke-width="2"/>
<path d="M75.0313 110.126C68.2365 117.588 61.4418 125.071 54.6471 132.533C54.3443 120.577 54.0226 108.599 53.7197 96.6431C60.6091 91.6972 67.4984 86.7513 74.3877 81.8054C74.577 91.2456 74.8041 100.686 75.0313 110.126Z" fill="white" stroke="#386190" stroke-width="2"/>
<path d="M54.3437 97.7828C54.8926 108.427 55.2522 119.093 55.4414 129.759C55.4414 129.974 55.7253 129.974 55.7253 129.759C55.5361 119.093 55.1765 108.427 54.6276 97.7828C54.6087 97.5893 54.3248 97.5893 54.3437 97.7828Z" fill="#386190"/>
<path d="M54.4951 97.8259C60.8355 93.1381 67.176 88.4502 73.5165 83.7624C73.6679 83.6548 73.5354 83.3753 73.365 83.4828C67.0246 88.1707 60.6841 92.8585 54.3436 97.5463C54.1922 97.6754 54.3247 97.9549 54.4951 97.8259Z" fill="#386190"/>
<path d="M73.4415 83.7407C73.4226 92.3208 73.6497 100.922 74.1418 109.481C74.1607 109.696 74.4446 109.696 74.4257 109.481C73.9525 100.901 73.7065 92.3208 73.7254 83.7407C73.7254 83.5472 73.4415 83.5472 73.4415 83.7407Z" fill="#386190"/>
<path d="M55.6317 130.211C61.8397 123.394 68.0666 116.577 74.2745 109.782C74.407 109.631 74.1988 109.416 74.0664 109.545C67.8584 116.362 61.6315 123.179 55.4235 129.974C55.3099 130.125 55.4992 130.361 55.6317 130.211Z" fill="#386190"/>
<path d="M84.3817 126.555C85.5363 124.469 86.6908 122.362 87.8075 120.233C87.9021 120.061 87.6561 119.889 87.5614 120.061C86.4447 122.19 85.2902 124.297 84.1357 126.383C84.0221 126.555 84.2682 126.727 84.3817 126.555Z" fill="#386190"/>
<path d="M87.7308 120.168C89.226 120.233 90.7212 120.233 92.2165 120.147C92.4057 120.147 92.4057 119.824 92.2165 119.824C90.7212 119.889 89.226 119.889 87.7308 119.846C87.5416 119.846 87.5416 120.168 87.7308 120.168Z" fill="#386190"/>
<path d="M92.0272 120.061C91.1755 122.168 90.3048 124.276 89.4342 126.383C89.3585 126.577 89.6046 126.727 89.6803 126.555C90.5509 124.448 91.4215 122.34 92.2732 120.233C92.3489 120.018 92.1029 119.867 92.0272 120.061Z" fill="#386190"/>
<path d="M84.2874 126.727C85.9529 127.007 87.7131 126.878 89.3976 126.792C89.5869 126.792 89.5869 126.469 89.3976 126.469C87.751 126.555 86.0097 126.684 84.3631 126.426C84.1738 126.383 84.0981 126.705 84.2874 126.727Z" fill="#386190"/>
<path d="M90.4945 120.082C89.7374 122.233 88.8668 124.319 87.8826 126.34C87.788 126.512 88.034 126.684 88.1287 126.512C89.1129 124.448 90.0024 122.34 90.7784 120.168C90.8352 119.975 90.5702 119.889 90.4945 120.082Z" fill="#386190"/>
<path d="M63.0692 129.824C67.2331 123.975 71.5484 118.255 75.9962 112.664C76.1097 112.513 75.9205 112.276 75.788 112.427C71.3402 117.997 67.0249 123.717 62.861 129.587C62.7474 129.759 62.9556 129.974 63.0692 129.824Z" fill="#386190"/>
<path d="M68.1054 130.189C71.8339 124.276 75.7707 118.556 79.8967 113.008C80.0103 112.857 79.821 112.62 79.6885 112.771C75.5436 118.34 71.6068 124.082 67.8593 130.017C67.7458 130.189 67.9918 130.361 68.1054 130.189Z" fill="#386190"/>
<path d="M73.5173 131.071C76.7538 124.921 80.2931 118.986 84.1163 113.287C84.2299 113.115 83.9838 112.965 83.8703 113.115C80.0471 118.814 76.5078 124.749 73.2713 130.899C73.1767 131.071 73.4227 131.243 73.5173 131.071Z" fill="#386190"/>
<path d="M78.0595 131.608C81.2392 124.878 85.0056 118.534 89.3209 112.685C89.4345 112.534 89.2452 112.298 89.1127 112.448C84.7785 118.319 80.9931 124.684 77.7945 131.436C77.7188 131.63 77.9649 131.802 78.0595 131.608Z" fill="#386190"/>
<path d="M65.492 126.34C70.3373 125.759 75.1825 126.448 80.0088 127.179C80.1981 127.2 80.1792 126.878 80.0088 126.856C75.2014 126.125 70.3562 125.415 65.492 126.017C65.3217 126.039 65.3217 126.362 65.492 126.34Z" fill="#386190"/>
<path d="M67.9334 123.2C72.5137 123.007 77.094 123.394 81.5985 124.383C81.7689 124.426 81.8446 124.104 81.6742 124.082C77.1508 123.093 72.5326 122.706 67.9334 122.899C67.7631 122.878 67.7631 123.2 67.9334 123.2Z" fill="#386190"/>
<path d="M70.1293 120.168C74.5392 119.846 78.9491 120.297 83.2455 121.502C83.4158 121.545 83.4915 121.244 83.3212 121.201C79.0059 119.975 74.577 119.523 70.1293 119.846C69.94 119.867 69.94 120.19 70.1293 120.168Z" fill="#386190"/>
<path d="M72.4012 117.136C76.6408 117.158 80.8425 117.652 84.9875 118.62C85.1578 118.663 85.2335 118.341 85.0632 118.319C80.8993 117.351 76.6597 116.857 72.4012 116.835C72.2309 116.814 72.2309 117.136 72.4012 117.136Z" fill="#386190"/>
<path d="M74.6527 114.319C78.6841 114.405 82.6966 114.943 86.6144 115.954C86.7847 115.997 86.8605 115.696 86.6901 115.653C82.7344 114.642 78.703 114.083 74.6527 114.018C74.4634 113.997 74.4634 114.319 74.6527 114.319Z" fill="#386190"/>
<path d="M87.6362 117.588C85.7813 120.684 83.9454 123.781 82.0906 126.878C81.996 127.05 82.242 127.222 82.3367 127.05C84.1915 123.953 86.0274 120.856 87.8822 117.76C87.9958 117.566 87.7497 117.416 87.6362 117.588Z" fill="#386190"/>
<path d="M56.2929 112.9C58.6588 111.76 61.2139 112.405 63.7122 112.362C65.8131 112.341 67.8193 111.674 69.6173 110.47C69.7688 110.363 69.6363 110.083 69.4659 110.191C67.2515 111.674 64.9046 112.147 62.3684 112.018C60.2486 111.911 58.1477 111.674 56.1415 112.642C55.9901 112.707 56.1226 112.986 56.2929 112.9Z" fill="#386190"/>
<path d="M62.6718 111.567C66.7221 108.965 68.5959 103.481 72.8166 101.18C72.9869 101.094 72.8355 100.815 72.6651 100.901C68.4255 103.223 66.5707 108.685 62.5204 111.287C62.369 111.395 62.5015 111.674 62.6718 111.567Z" fill="#386190"/>
<path d="M67.8199 96.2345C67.1197 95.6109 67.2332 94.6002 67.6307 93.8046C67.8199 93.4175 68.1038 93.0089 68.4256 92.7724C69.0123 92.3423 69.5612 92.6864 70.0154 93.138C70.1479 93.267 70.3561 93.0519 70.2236 92.9014C69.2773 91.9983 68.3877 92.0843 67.6118 93.2455C66.9872 94.1916 66.6654 95.6109 67.6118 96.4711C67.7632 96.6001 67.9714 96.3635 67.8199 96.2345Z" fill="#386190"/>
<path d="M126.112 80.5152C120.926 87.0524 119.526 94.2347 118.769 98.2989C117.387 105.825 118.844 108.836 118.939 123.136C118.977 129.221 118.75 134.146 118.579 137.242C119.753 138.275 127.021 144.425 136.73 142.403C143.922 140.92 148.257 135.802 149.619 134.06C149.941 132.017 150.395 129.006 150.925 125.351C153.726 105.632 155.108 95.6324 153.367 88.4716C152.326 84.1278 149.752 77.2466 142.446 70.1288C139.38 70.8599 132.017 73.0963 126.112 80.5152Z" fill="#284B7B"/>
<path opacity="0.19" d="M131.394 76.5585C133.192 82.6656 134.157 87.891 134.725 91.7187C136.22 101.847 138.472 117.029 132.132 131.737C130.107 136.425 127.741 139.866 126.075 141.995C128.271 142.575 132.624 143.371 137.81 141.844C143.98 140.038 147.841 135.974 149.431 134.124C150.661 126.125 151.645 119.265 152.402 113.911C153.708 104.492 154.011 101.632 153.879 97.6108C153.727 92.4498 153.519 87.0309 150.794 81.1818C148.182 75.5908 144.51 72.2362 142.258 70.5159C140.422 70.8814 137.829 71.6556 135.084 73.4619C133.57 74.4941 132.34 75.5908 131.394 76.5585Z" fill="#DAEEF9"/>
<path opacity="0.18" d="M152.894 86.8159C152.553 86.8374 153.272 92.794 152.156 101.008C150.093 116.212 143.468 126.749 140.913 130.49C138.775 133.608 135.424 137.909 130.522 142.145C132.283 142.446 134.63 142.576 137.317 141.995C143.695 140.64 147.746 136.189 149.298 134.275C149.695 131.652 150.339 127.544 151.153 122.469C153.064 110.599 153.443 109.18 153.746 105.481C154.578 95.396 153.291 86.8159 152.894 86.8159Z" fill="#DAEEF9"/>
<path d="M92.7635 102.793C92.4039 102.514 91.6847 101.998 91.7604 101.568C91.9118 100.879 94.0884 100.772 95.6593 101.073C96.7192 101.266 98.6498 101.89 100.675 104.062C98.4037 104.428 95.1294 104.535 92.7635 102.793Z" fill="white" stroke="#386190" stroke-width="2"/>
<path d="M146.194 82.1925C142.39 80.9238 137.942 86.7513 137.545 87.3104C136.03 89.3533 135.671 90.8156 134.251 94.7723C130.807 104.449 129.009 109.33 125.602 111.868C122.555 114.147 119.356 114.233 118.504 114.233C114.927 114.212 111.975 112.19 106.221 108.148C101.376 104.729 100.883 103.696 98.0823 102.836C96.6628 102.406 92.4989 101.116 89.2624 103.632C87.1994 105.223 85.9313 108.191 86.4991 108.943C87.2183 109.911 91.0794 107.632 91.0983 107.718C91.1172 107.761 89.9816 108.126 88.9596 109.158C88.4486 109.653 87.5401 110.728 87.7483 111.115C88.1268 111.846 91.5715 108.492 94.6376 109.739C96.7196 110.578 96.8331 112.836 99.2747 113.717C100.713 114.233 102.076 113.954 102.946 113.674C104.12 115.674 106.107 118.534 109.173 121.136C111.009 122.684 117.482 128.017 126.472 127.222C136.012 126.383 141.803 119.222 143.601 117.007C144.642 115.739 152.194 106.126 151.039 93.6111C150.869 91.5682 150.131 83.5258 146.194 82.1925Z" fill="white" stroke="#386190" stroke-width="2"/>
<path opacity="0.25" d="M145.779 82.1925C144.34 82.7301 146.138 88.5577 144.681 96.1915C143.299 103.524 139.665 108.47 138.019 110.728C135.804 113.76 132.908 117.717 127.969 119.738C121.344 122.448 113.906 120.534 108.928 116.986C107.452 115.911 106.203 113.137 102.891 110.965C101.452 110.019 100.298 109.545 98.9159 108.965C95.5848 107.589 92.5944 106.341 89.5472 107.438C88.0898 107.954 86.7839 108.943 86.8596 109.115C86.9353 109.309 88.6198 108.685 90.1339 108.105C88.1087 110.277 87.7302 110.943 87.8248 111.115C87.9384 111.287 88.5441 110.836 89.9636 110.277C91.5156 109.653 92.5944 109.244 93.8436 109.588C94.4681 109.761 94.9224 110.083 95.2063 110.277C96.2473 111.008 96.4176 111.717 97.4396 112.556C98.0642 113.072 98.632 113.33 98.9349 113.459C99.5594 113.739 100.884 114.19 102.758 113.803C104.045 115.911 110.007 125.243 120.474 126.964C125.868 127.845 130.126 126.34 131.811 125.716C141.047 122.319 145.722 114.19 146.933 111.932C150.681 104.965 153.236 94.0842 149.375 86.2567C148.466 84.2999 146.763 81.8269 145.779 82.1925Z" fill="#DAEEF9"/>
<path d="M86.8393 109.008C87.8424 107.825 89.0159 106.965 90.3786 106.449C90.6436 106.341 90.53 105.89 90.2651 105.976C88.8455 106.535 87.5775 107.438 86.5365 108.664C86.3472 108.9 86.65 109.244 86.8393 109.008Z" fill="#386190"/>
<path d="M87.5211 106.126C88.5242 104.858 89.9248 104.363 91.3254 103.911C91.5904 103.825 91.4768 103.352 91.2118 103.438C89.7545 103.933 88.2782 104.471 87.2372 105.782C87.029 106.019 87.3319 106.341 87.5211 106.126Z" fill="#386190"/>
<path opacity="0.29" d="M150.453 91.4392C149.81 93.6756 148.769 96.9012 147.236 100.643C144.188 108.019 141.444 114.663 136.088 119.373C129.482 125.179 121.571 125.673 117.123 125.437C120.246 126.878 122.839 127.179 124.486 127.222C137.015 127.523 145.797 114.04 148.523 107.976C148.996 106.901 149.98 104.664 150.548 101.482C151.286 97.2023 150.851 93.6111 150.453 91.4392Z" fill="#DAEEF9"/>
<path opacity="0.26" d="M95.0928 109.524C96.1527 110.363 97.6479 111.352 99.5595 112.126C101.074 112.728 102.455 113.029 103.553 113.18C100.506 114.319 99.0863 113.868 98.3482 113.18C97.8939 112.75 97.4208 111.954 96.0013 110.47C95.6416 110.062 95.3199 109.739 95.0928 109.524Z" fill="#DAEEF9"/>
<path d="M116.859 38.8192C116.65 40.1955 116.442 41.5717 116.272 43.0125C115.534 48.8616 115.231 54.3881 115.212 59.5275C116.253 59.3985 117.275 59.2695 118.316 59.1619C118.202 60.3016 117.881 64.4734 120.228 68.6021C122.442 72.4943 125.622 73.9136 126.606 74.3007C126.492 76.4081 126.398 78.4939 126.284 80.6013C128.328 78.5369 131.11 76.107 134.65 73.9351C137.356 72.2793 139.911 71.1396 142.088 70.3655C139.646 66.9248 138.719 63.6777 138.321 61.8069C137.64 58.5813 137.773 55.8073 137.905 53.3559C138.038 50.8399 138.359 48.754 138.643 47.2918C139.533 42.6899 137.205 35.4001 132.568 32.7766C127.987 30.1747 121.155 32.3681 116.859 38.8192Z" fill="white" stroke="#1C3867" stroke-width="2"/>
<path d="M117.882 59.3124C118.412 59.2264 118.961 59.1619 119.49 59.0974C119.68 59.0759 119.68 58.7533 119.49 58.7748C118.923 58.8393 118.374 58.9254 117.806 59.0114C117.636 59.0114 117.711 59.3339 117.882 59.3124Z" fill="#1C3867"/>
<path d="M134.953 42.1524C132.662 42.819 132.246 45.0769 129.35 49.7862C126.417 54.5601 124.562 57.5491 121.25 59.291C119.111 60.4092 118.051 60.1081 117.105 61.5489C115.477 64.0433 116.575 68.1506 117.54 70.2579C118.657 72.6879 120.36 74.1502 121.761 75.3544C123.104 76.4941 124.335 77.2467 125.205 77.6983C124.278 76.0855 124.221 75.5909 124.335 75.4404C124.637 75.0963 125.925 76.9457 127.439 76.7091C127.874 76.6446 128.65 76.3651 130.372 73.29C131.546 71.2041 132.341 69.7634 132.871 67.699C134.025 63.2692 132.397 62.065 132.871 56.2374C132.946 55.3557 133.476 48.453 135.634 48.0014C136.41 47.8294 137.205 48.5605 137.583 49.1196C138.378 50.3023 138.284 52.1947 137.299 53.829C137.621 53.5709 140.706 51.2055 140.668 47.3563C140.668 46.7542 140.65 44.5393 139.173 43.0985C137.489 41.4642 135.142 42.1093 134.953 42.1524Z" fill="#1C3867" stroke="#1C3867" stroke-width="2"/>
<ellipse cx="119.698" cy="50.3237" rx="0.794924" ry="1.61279" fill="#1C3867"/>
<ellipse cx="113.642" cy="51.0764" rx="0.794924" ry="1.61279" fill="#1C3867"/>
<path d="M112.448 48.4315C112.96 47.7649 113.754 47.7003 114.322 48.3455C114.587 48.6465 114.985 48.1734 114.72 47.8939C113.944 47.0337 112.751 47.0552 112.032 47.9799C111.824 48.3025 112.221 48.754 112.448 48.4315Z" fill="#1C3867"/>
<path d="M118.658 47.3132C119.32 46.6895 120.191 46.7756 120.759 47.4852C121.005 47.7862 121.402 47.3347 121.156 47.0336C120.361 46.0659 119.131 46.0229 118.241 46.8616C117.976 47.1196 118.374 47.5712 118.658 47.3132Z" fill="#1C3867"/>
<path d="M116.216 41.3781C116.424 39.8298 116.954 37.2923 118.411 34.6689C118.922 33.7442 120.02 31.7873 121.761 30.4541C125.092 27.9381 130.222 28.1317 133.95 31.2282C137.603 34.2603 139.42 39.6793 138.625 45.0553C131.149 43.851 123.692 42.6253 116.216 41.3781Z" fill="#386190"/>
<path d="M103.989 41.5718C115.477 43.2491 126.985 44.9264 138.473 46.5822C139.552 46.7327 139.552 44.7974 138.473 44.6468C126.985 42.9695 115.477 41.2922 103.989 39.6364C102.91 39.4644 102.91 41.3997 103.989 41.5718Z" fill="#1C3867"/>
<path d="M125.944 28.8845C128.897 29.6156 131.13 32.3251 131.509 35.5722C131.849 38.4107 130.752 41.2922 128.67 43.0556C131.944 43.5502 135.237 44.0662 138.512 44.5608C138.682 43.5717 138.833 42.0664 138.625 40.3031C138.133 36.1743 136.032 33.5293 135.351 32.7337C134.613 31.8735 132.001 28.992 128.121 28.734C127.231 28.691 126.474 28.777 125.944 28.8845Z" fill="#386190"/>
</svg>
